<svg width="179" height="38" viewBox="0 0 179 38" fill="none" xmlns="http://www.w3.org/2000/svg">
<path d="M2.17151 1.53906H1.17151V2.53906V35.2344V36.2344H2.17151H20.8043H21.8043V35.2344V28.5547V27.5547H20.8043H10.7887V22.5234H20.0543H21.0543V21.5234V15.125V14.125H20.0543H10.7887V10.125H20.8043H21.8043V9.125V2.53906V1.53906H20.8043H2.17151ZM57.8474 35.3187L58.4212 35.0484V34.4141V27.0547V25.0044L56.8056 26.2667C55.3913 27.3715 54.2386 27.8125 53.3196 27.8125C52.0603 27.8125 50.9957 27.2021 50.1038 25.7045C49.2083 24.1591 48.7181 22.0329 48.7181 19.25C48.7181 15.9506 49.2188 13.576 50.1088 12.0135C50.9962 10.4824 52.0942 9.84375 53.4368 9.84375C54.54 9.84375 55.6276 10.3063 56.7186 11.3835L58.4212 13.0645V10.6719V3.19531V2.54717L57.8296 2.28249C55.9523 1.44268 54.1483 1 52.429 1C49.6859 1 47.2302 1.86671 45.0992 3.58793C42.986 5.27909 41.4404 7.53385 40.4482 10.3121L40.4464 10.3171C39.4851 13.0544 39.0071 15.9482 39.0071 18.9922C39.0071 23.9112 40.1295 28.1029 42.4373 31.5065C44.7833 34.9665 48.0064 36.75 52.0306 36.75C53.9106 36.75 55.8531 36.2582 57.8474 35.3187ZM77.5615 1.53906H76.5615V2.53906V35.2344V36.2344H77.5615H85.1787H86.1787V35.2344V22.794C86.7939 22.8498 87.1515 23.084 87.3872 23.4155L87.3914 23.4214L87.3957 23.4273C87.765 23.9309 88.1022 24.8507 88.3132 26.325C88.3134 26.3263 88.3136 26.3276 88.3137 26.3289L89.5314 35.3679L89.6481 36.2344H90.5224H98.8662H100.103L99.844 35.0247L97.6174 24.642C97.2374 22.8684 96.5351 21.3919 95.4572 20.2863C94.9948 19.812 94.4749 19.418 93.9022 19.1016C95.2564 18.3638 96.3738 17.4711 97.2298 16.41C98.5758 14.7451 99.2334 12.7435 99.2334 10.4609C99.2334 7.69124 98.3147 5.43278 96.3895 3.83364C94.529 2.2751 92.1356 1.53906 89.3037 1.53906H77.5615ZM118.163 1.53906H117.163V2.53906V35.2344V36.2344H118.163H136.796H137.796V35.2344V28.5547V27.5547H136.796H126.78V22.5234H136.046H137.046V21.5234V15.125V14.125H136.046H126.78V10.125H136.796H137.796V9.125V2.53906V1.53906H136.796H118.163ZM155.787 1.53906H154.787V2.53906V9.17188V10.1719H155.787H161.186V35.2344V36.2344H162.186H169.803H170.803V35.2344V10.1719H176.436H177.436V9.17188V2.53906V1.53906H176.436H155.787ZM86.8428 14.8984H86.1787V9.89062H87.1943C88.1543 9.89062 88.6808 10.1272 88.9716 10.418C89.2648 10.7112 89.499 11.2323 89.499 12.1719C89.499 13.0432 89.2527 13.6859 88.8141 14.1794C88.4264 14.6155 87.825 14.8984 86.8428 14.8984Z" stroke="#292929" stroke-width="2"/>
</svg>
