<svg width="261" height="77" viewBox="0 0 261 77" fill="none" xmlns="http://www.w3.org/2000/svg">
<path d="M0.171875 1.30469H20.8203V7.9375H14.1875V34H6.57031V7.9375H0.171875V1.30469ZM40.4216 1.30469H52.1637C54.82 1.30469 56.9684 1.99219 58.6091 3.36719C60.2653 4.74219 61.0934 6.69531 61.0934 9.22656C61.0934 11.3047 60.4997 13.0781 59.3122 14.5469C58.1403 16 56.3747 17.1484 54.0153 17.9922C56.9684 18.4609 58.7966 20.3359 59.4997 23.6172L61.7262 34H53.3825L52.1637 24.9531C51.945 23.4219 51.5778 22.3047 51.0622 21.6016C50.5622 20.8984 49.7887 20.5469 48.7419 20.5469H48.0387V34H40.4216V1.30469ZM48.0387 7.65625V14.6641H49.7028C50.8903 14.6641 51.7966 14.3125 52.4216 13.6094C53.0466 12.9062 53.3591 12.0156 53.3591 10.9375C53.3591 9.84375 53.0856 9.02344 52.5387 8.47656C51.9919 7.92969 51.1637 7.65625 50.0544 7.65625H48.0387ZM87.3509 1.30469H94.9212L103.523 34H95.2259L94.0775 27.5078H87.8431L86.6244 34H78.8197L87.3509 1.30469ZM90.9837 10.2344L88.8978 21.6484H93.0228L90.9837 10.2344ZM138.335 33.1797C136.444 34.0703 134.647 34.5156 132.944 34.5156C129.272 34.5156 126.351 32.9141 124.179 29.7109C122.007 26.5078 120.921 22.5234 120.921 17.7578C120.921 14.8203 121.382 12.0391 122.304 9.41406C123.241 6.78906 124.687 4.69531 126.64 3.13281C128.593 1.55469 130.827 0.765625 133.343 0.765625C134.89 0.765625 136.554 1.16406 138.335 1.96094V9.4375C137.101 8.21875 135.772 7.60938 134.351 7.60938C132.585 7.60938 131.187 8.5 130.155 10.2812C129.14 12.0625 128.632 14.6406 128.632 18.0156C128.632 20.9062 129.14 23.2266 130.155 24.9766C131.187 26.7109 132.546 27.5781 134.233 27.5781C135.468 27.5781 136.835 26.9922 138.335 25.8203V33.1797ZM158.499 1.30469H166.116V13.0703L171.882 1.30469H179.428L173.053 12.4141L180.413 34H171.882L168.178 21.0391L166.116 24.6016V34H158.499V1.30469ZM1.08594 43.3047H12.8281C15.4844 43.3047 17.6328 43.9922 19.2734 45.3672C20.9297 46.7422 21.7578 48.6953 21.7578 51.2266C21.7578 53.3047 21.1641 55.0781 19.9766 56.5469C18.8047 58 17.0391 59.1484 14.6797 59.9922C17.6328 60.4609 19.4609 62.3359 20.1641 65.6172L22.3906 76H14.0469L12.8281 66.9531C12.6094 65.4219 12.2422 64.3047 11.7266 63.6016C11.2266 62.8984 10.4531 62.5469 9.40625 62.5469H8.70312V76H1.08594V43.3047ZM8.70312 49.6562V56.6641H10.3672C11.5547 56.6641 12.4609 56.3125 13.0859 55.6094C13.7109 54.9062 14.0234 54.0156 14.0234 52.9375C14.0234 51.8438 13.75 51.0234 13.2031 50.4766C12.6562 49.9297 11.8281 49.6562 10.7188 49.6562H8.70312ZM41.6872 43.3047H60.32V49.8906H49.3044V55.8906H59.57V62.2891H49.3044V69.3203H60.32V76H41.6872V43.3047ZM96.9369 75.1797C95.0462 76.0703 93.2494 76.5156 91.5462 76.5156C87.8744 76.5156 84.9525 74.9141 82.7806 71.7109C80.6087 68.5078 79.5228 64.5234 79.5228 59.7578C79.5228 56.8203 79.9837 54.0391 80.9056 51.4141C81.8431 48.7891 83.2884 46.6953 85.2416 45.1328C87.1947 43.5547 89.4291 42.7656 91.9447 42.7656C93.4916 42.7656 95.1556 43.1641 96.9369 43.9609V51.4375C95.7025 50.2188 94.3744 49.6094 92.9525 49.6094C91.1869 49.6094 89.7884 50.5 88.7572 52.2812C87.7416 54.0625 87.2337 56.6406 87.2337 60.0156C87.2337 62.9062 87.7416 65.2266 88.7572 66.9766C89.7884 68.7109 91.1478 69.5781 92.8353 69.5781C94.0697 69.5781 95.4369 68.9922 96.9369 67.8203V75.1797ZM127.624 42.7656C131.577 42.7656 134.694 44.2578 136.976 47.2422C139.257 50.2266 140.397 54.3047 140.397 59.4766C140.397 64.6641 139.249 68.8047 136.952 71.8984C134.655 74.9766 131.679 76.5156 128.022 76.5156C124.226 76.5156 121.288 74.9141 119.21 71.7109C117.132 68.5078 116.093 64.5156 116.093 59.7344C116.093 56.4219 116.601 53.4531 117.616 50.8281C118.632 48.1875 120.054 46.1875 121.882 44.8281C123.71 43.4531 125.624 42.7656 127.624 42.7656ZM128.444 49.6562C126.913 49.6562 125.741 50.5391 124.929 52.3047C124.116 54.0703 123.71 56.4844 123.71 59.5469C123.71 62.6562 124.101 65.1016 124.882 66.8828C125.679 68.6484 126.772 69.5312 128.163 69.5312C129.538 69.5312 130.64 68.6172 131.468 66.7891C132.296 64.9609 132.71 62.5234 132.71 59.4766C132.71 56.3203 132.288 53.8984 131.444 52.2109C130.616 50.5078 129.616 49.6562 128.444 49.6562ZM159.928 43.3047H171.671C174.327 43.3047 176.475 43.9922 178.116 45.3672C179.772 46.7422 180.6 48.6953 180.6 51.2266C180.6 53.3047 180.007 55.0781 178.819 56.5469C177.647 58 175.882 59.1484 173.522 59.9922C176.475 60.4609 178.303 62.3359 179.007 65.6172L181.233 76H172.889L171.671 66.9531C171.452 65.4219 171.085 64.3047 170.569 63.6016C170.069 62.8984 169.296 62.5469 168.249 62.5469H167.546V76H159.928V43.3047ZM167.546 49.6562V56.6641H169.21C170.397 56.6641 171.303 56.3125 171.928 55.6094C172.553 54.9062 172.866 54.0156 172.866 52.9375C172.866 51.8438 172.592 51.0234 172.046 50.4766C171.499 49.9297 170.671 49.6562 169.561 49.6562H167.546ZM200.53 43.3047H210.069C212.928 43.3047 215.303 43.9766 217.194 45.3203C219.084 46.6641 220.428 48.5781 221.225 51.0625C222.038 53.5469 222.444 56.2891 222.444 59.2891C222.444 64.3359 221.303 68.3828 219.022 71.4297C216.756 74.4766 213.428 76 209.038 76H200.53V43.3047ZM208.147 49.6562V69.6016H208.686C212.639 69.6016 214.616 66.0234 214.616 58.8672C214.616 56.1016 214.186 53.875 213.327 52.1875C212.483 50.5 211.092 49.6562 209.155 49.6562H208.147ZM241.529 66.2266C244.045 68.5703 246.42 69.7422 248.654 69.7422C249.795 69.7422 250.772 69.375 251.584 68.6406C252.397 67.9062 252.803 67.0156 252.803 65.9688C252.803 65.125 252.514 64.375 251.936 63.7188C251.342 63.0625 250.232 62.3281 248.607 61.5156C246.311 60.3906 244.561 59.1328 243.357 57.7422C242.139 56.3516 241.529 54.5859 241.529 52.4453C241.529 49.7266 242.482 47.4375 244.389 45.5781C246.295 43.7031 248.818 42.7656 251.959 42.7656C254.115 42.7656 256.357 43.3438 258.686 44.5V52.3047C256.623 50.3203 254.647 49.3281 252.756 49.3281C251.818 49.3281 251.006 49.6094 250.318 50.1719C249.631 50.7344 249.287 51.4141 249.287 52.2109C249.287 52.9922 249.568 53.6641 250.131 54.2266C250.678 54.7891 251.693 55.3984 253.178 56.0547C255.631 57.1484 257.49 58.3984 258.756 59.8047C260.022 61.2266 260.654 63.1406 260.654 65.5469C260.654 68.5781 259.561 71.1641 257.373 73.3047C255.201 75.4453 252.545 76.5156 249.404 76.5156C246.967 76.5156 244.342 75.7812 241.529 74.3125V66.2266Z" fill="#292929"/>
</svg>
