<svg width="64" height="107" viewBox="0 0 64 107" fill="none" xmlns="http://www.w3.org/2000/svg">
<circle cx="31.9266" cy="31.2057" r="4.31505" fill="#292929"/>
<circle cx="31.2074" cy="75.7936" r="4.31505" fill="#292929"/>
<path d="M31.123 45.7543C14.4867 45.7543 1.0002 59.2408 1.00019 75.8772C1.00019 92.5135 14.4866 106 31.123 106" stroke="#E8E4D9" stroke-width="2"/>
<path d="M31.1226 50.9181C17.3381 50.9181 6.16365 62.0926 6.16364 75.877C6.16364 89.6614 17.3381 100.836 31.1226 100.836" stroke="#E8E4D9" stroke-width="2"/>
<path d="M31.1221 56.0819C20.1896 56.0819 11.3271 64.9444 11.3271 75.8769C11.3271 86.8093 20.1896 95.6719 31.1221 95.6719" stroke="#E8E4D9" stroke-width="2"/>
<path d="M31.1216 61.2456C23.0411 61.2456 16.4905 67.7962 16.4905 75.8767C16.4905 83.9572 23.0411 90.5078 31.1216 90.5078" stroke="#E8E4D9" stroke-width="2"/>
<path d="M40.5898 75.8773C40.5898 70.6488 36.3512 66.4102 31.1226 66.4102C25.8941 66.4102 21.6555 70.6488 21.6555 75.8773" stroke="#E8E4D9" stroke-width="2"/>
<path d="M35.4254 75.8775C35.4254 73.5009 33.4988 71.5742 31.1222 71.5742C28.7455 71.5742 26.8189 73.5009 26.8189 75.8775" stroke="#E8E4D9" stroke-width="2"/>
<path d="M31.984 61.2457C48.6204 61.2457 62.1069 47.7592 62.1069 31.1228C62.1069 14.4865 48.6204 0.999998 31.984 0.999995" stroke="#E8E4D9" stroke-width="2"/>
<path d="M31.9845 56.0819C45.7689 56.0819 56.9434 44.9074 56.9434 31.123C56.9434 17.3386 45.7689 6.16406 31.9845 6.16406" stroke="#E8E4D9" stroke-width="2"/>
<path d="M31.985 50.9181C42.9174 50.9181 51.78 42.0556 51.78 31.1231C51.78 20.1907 42.9174 11.3281 31.985 11.3281" stroke="#E8E4D9" stroke-width="2"/>
<path d="M31.9854 45.7544C40.0659 45.7544 46.6165 39.2038 46.6165 31.1233C46.6165 23.0428 40.066 16.4922 31.9854 16.4922" stroke="#E8E4D9" stroke-width="2"/>
<path d="M22.5173 31.1227C22.5173 36.3512 26.7559 40.5898 31.9845 40.5898C37.2131 40.5898 41.4517 36.3512 41.4517 31.1227" stroke="#E8E4D9" stroke-width="2"/>
<path d="M27.6803 31.1225C27.6803 33.4991 29.6069 35.4258 31.9835 35.4258C34.3602 35.4258 36.2868 33.4991 36.2868 31.1225" stroke="#E8E4D9" stroke-width="2"/>
<path d="M62.1076 31.1228C62.1076 14.4865 48.6211 1 31.9847 1C15.3483 1 1.86188 14.4865 1.86188 31.1228" stroke="#292929" stroke-width="2" stroke-linecap="round"/>
<path d="M56.9432 31.121C56.9432 17.3366 45.7687 6.16211 31.9843 6.16211C18.1998 6.16211 7.02533 17.3366 7.02533 31.121" stroke="#292929" stroke-width="2" stroke-linecap="round"/>
<path d="M51.7788 31.1231C51.7788 20.1907 42.9163 11.3281 31.9838 11.3281C21.0513 11.3281 12.1888 20.1907 12.1888 31.1231" stroke="#292929" stroke-width="2" stroke-linecap="round"/>
<path d="M46.6144 31.1213C46.6144 23.0408 40.0639 16.4902 31.9833 16.4902C23.9028 16.4902 17.3522 23.0408 17.3522 31.1213" stroke="#292929" stroke-width="2" stroke-linecap="round"/>
<path d="M31.9845 40.5906C37.2131 40.5906 41.4517 36.352 41.4517 31.1234C41.4517 25.8948 37.2131 21.6562 31.9845 21.6562" stroke="#292929" stroke-width="2"/>
<path d="M31.9835 35.4268C34.3601 35.4268 36.2867 33.5002 36.2867 31.1236C36.2867 28.7469 34.3601 26.8203 31.9835 26.8203" stroke="#292929" stroke-width="2"/>
<path d="M1.00133 75.8771C1.00133 92.5135 14.4878 106 31.1242 106C47.7606 106 61.247 92.5135 61.247 75.8772" stroke="#292929" stroke-width="2" stroke-linecap="round"/>
<path d="M6.16571 75.879C6.16571 89.6634 17.3402 100.838 31.1246 100.838C44.9091 100.838 56.0836 89.6634 56.0836 75.879" stroke="#292929" stroke-width="2" stroke-linecap="round"/>
<path d="M11.3287 75.8769C11.3287 86.8093 20.1912 95.6719 31.1237 95.6719C42.0562 95.6719 50.9187 86.8093 50.9187 75.8769" stroke="#292929" stroke-width="2" stroke-linecap="round"/>
<path d="M16.4931 75.8787C16.4931 83.9592 23.0436 90.5098 31.1242 90.5098C39.2047 90.5098 45.7553 83.9592 45.7553 75.8787" stroke="#292929" stroke-width="2" stroke-linecap="round"/>
<path d="M31.1244 66.4094C25.8958 66.4094 21.6572 70.648 21.6572 75.8766C21.6572 81.1052 25.8958 85.3437 31.1244 85.3437" stroke="#292929" stroke-width="2"/>
<path d="M31.1239 71.5732C28.7473 71.5732 26.8207 73.4998 26.8207 75.8764C26.8207 78.2531 28.7473 80.1797 31.1239 80.1797" stroke="#292929" stroke-width="2"/>
<path d="M31.9839 1.00041C15.3475 1.00041 1.86103 14.4869 1.86103 31.1233C1.86102 47.7596 15.3475 61.2461 31.9839 61.2461" stroke="#292929" stroke-width="2"/>
<path d="M31.9834 6.16418C18.199 6.16418 7.02448 17.3387 7.02448 31.1231C7.02448 44.9075 18.199 56.082 31.9834 56.082" stroke="#292929" stroke-width="2"/>
<path d="M31.9829 11.328C21.0505 11.328 12.1879 20.1905 12.1879 31.123C12.1879 42.0554 21.0505 50.918 31.9829 50.918" stroke="#292929" stroke-width="2"/>
<path d="M31.9825 16.4917C23.9019 16.4917 17.3514 23.0423 17.3514 31.1228C17.3514 39.2033 23.9019 45.7539 31.9825 45.7539" stroke="#292929" stroke-width="2"/>
<path d="M31.9834 21.6555C26.7548 21.6555 22.5162 25.8941 22.5162 31.1227C22.5162 36.3512 26.7548 40.5898 31.9834 40.5898" stroke="#292929" stroke-width="2"/>
<path d="M31.983 26.8193C29.6063 26.8193 27.6797 28.7459 27.6797 31.1225C27.6797 33.4991 29.6063 35.4258 31.983 35.4258" stroke="#292929" stroke-width="2"/>
<path d="M31.1239 106C47.7602 106 61.2467 92.5131 61.2467 75.8767C61.2467 59.2404 47.7602 45.7539 31.1239 45.7539" stroke="#292929" stroke-width="2"/>
<path d="M31.1257 100.836C44.9102 100.836 56.0846 89.6613 56.0847 75.8769C56.0847 62.0925 44.9102 50.918 31.1257 50.918" stroke="#292929" stroke-width="2"/>
<path d="M31.1248 95.672C42.0573 95.672 50.9198 86.8095 50.9198 75.877C50.9198 64.9446 42.0573 56.082 31.1248 56.082" stroke="#292929" stroke-width="2"/>
<path d="M31.1253 90.5083C39.2058 90.5083 45.7563 83.9577 45.7563 75.8772C45.7563 67.7967 39.2058 61.2461 31.1253 61.2461" stroke="#292929" stroke-width="2"/>
<path d="M31.1257 85.3445C36.3543 85.3445 40.5929 81.1059 40.5929 75.8773C40.5929 70.6488 36.3543 66.4102 31.1257 66.4102" stroke="#292929" stroke-width="2"/>
<path d="M31.1261 80.1807C33.5027 80.1807 35.4294 78.2541 35.4294 75.8775C35.4294 73.5009 33.5027 71.5742 31.1261 71.5742" stroke="#292929" stroke-width="2"/>
<circle cx="31.2079" cy="75.7934" r="0.719176" fill="#FBF9F4"/>
<circle cx="31.9271" cy="31.2055" r="0.719176" fill="#FBF9F4"/>
</svg>
