<svg width="138" height="46" viewBox="0 0 138 46" fill="none" xmlns="http://www.w3.org/2000/svg">
<path d="M4.704 9L2.64 2.28H2.592C2.6 2.44 2.612 2.68 2.628 3C2.644 3.32 2.66 3.664 2.676 4.032C2.692 4.392 2.7 4.72 2.7 5.016V9H1.08V0.431999H3.552L5.58 6.984H5.616L7.764 0.431999H10.236V9H8.544V4.944C8.544 4.672 8.548 4.36 8.556 4.008C8.572 3.656 8.584 3.324 8.592 3.012C8.608 2.692 8.62 2.452 8.628 2.292H8.58L6.372 9H4.704ZM18.7243 9L18.1003 6.96H14.9803L14.3563 9H12.4003L15.4243 0.396H17.6443L20.6803 9H18.7243ZM17.0443 3.444C17.0043 3.308 16.9523 3.136 16.8883 2.928C16.8243 2.72 16.7603 2.508 16.6963 2.292C16.6323 2.076 16.5803 1.888 16.5403 1.728C16.5003 1.888 16.4443 2.088 16.3723 2.328C16.3083 2.56 16.2443 2.784 16.1803 3C16.1243 3.208 16.0803 3.356 16.0483 3.444L15.4363 5.436H17.6683L17.0443 3.444ZM25.8631 4.188H29.2591V8.628C28.8111 8.78 28.3431 8.9 27.8551 8.988C27.3751 9.076 26.8271 9.12 26.2111 9.12C25.3631 9.12 24.6391 8.952 24.0391 8.616C23.4471 8.28 22.9951 7.784 22.6831 7.128C22.3791 6.472 22.2271 5.664 22.2271 4.704C22.2271 3.808 22.3991 3.032 22.7431 2.376C23.0951 1.72 23.6031 1.212 24.2671 0.852C24.9311 0.492 25.7431 0.312 26.7031 0.312C27.1591 0.312 27.6071 0.36 28.0471 0.456C28.4871 0.552 28.8871 0.68 29.2471 0.84L28.6471 2.292C28.3831 2.156 28.0831 2.044 27.7471 1.956C27.4111 1.868 27.0591 1.824 26.6911 1.824C26.1631 1.824 25.7031 1.944 25.3111 2.184C24.9271 2.424 24.6271 2.764 24.4111 3.204C24.2031 3.636 24.0991 4.148 24.0991 4.74C24.0991 5.3 24.1751 5.796 24.3271 6.228C24.4791 6.66 24.7191 7 25.0471 7.248C25.3751 7.488 25.8031 7.608 26.3311 7.608C26.5071 7.608 26.6591 7.604 26.7871 7.596C26.9231 7.58 27.0471 7.564 27.1591 7.548C27.2711 7.524 27.3791 7.504 27.4831 7.488V5.7H25.8631V4.188ZM37.6187 9L36.9947 6.96H33.8747L33.2507 9H31.2947L34.3187 0.396H36.5387L39.5747 9H37.6187ZM35.9387 3.444C35.8987 3.308 35.8467 3.136 35.7827 2.928C35.7187 2.72 35.6547 2.508 35.5907 2.292C35.5267 2.076 35.4747 1.888 35.4347 1.728C35.3947 1.888 35.3387 2.088 35.2667 2.328C35.2027 2.56 35.1387 2.784 35.0747 3C35.0187 3.208 34.9747 3.356 34.9427 3.444L34.3307 5.436H36.5627L35.9387 3.444ZM47.3198 9H40.9478V7.824L45.0518 1.932H41.0558V0.431999H47.2118V1.608L43.1078 7.5H47.3198V9ZM52.9731 9H49.0731V7.968L50.1171 7.488V1.944L49.0731 1.464V0.431999H52.9731V1.464L51.9291 1.944V7.488L52.9731 7.968V9ZM63.1091 9H60.8051L57.0731 2.52H57.0251C57.0331 2.72 57.0411 2.924 57.0491 3.132C57.0571 3.332 57.0651 3.536 57.0731 3.744C57.0891 3.944 57.1011 4.148 57.1091 4.356C57.1171 4.556 57.1251 4.76 57.1331 4.968V9H55.5131V0.431999H57.8051L61.5251 6.852H61.5611C61.5531 6.652 61.5451 6.456 61.5371 6.264C61.5291 6.064 61.5211 5.868 61.5131 5.676C61.5131 5.476 61.5091 5.28 61.5011 5.088C61.4931 4.888 61.4851 4.688 61.4771 4.488V0.431999H63.1091V9ZM71.2868 9H66.3548V0.431999H71.2868V1.92H68.1668V3.804H71.0708V5.292H68.1668V7.5H71.2868V9ZM11.604 18.432L9.42 27H7.356L6.192 22.5C6.168 22.412 6.136 22.28 6.096 22.104C6.064 21.928 6.024 21.736 5.976 21.528C5.936 21.32 5.9 21.124 5.868 20.94C5.836 20.748 5.812 20.6 5.796 20.496C5.788 20.6 5.764 20.748 5.724 20.94C5.692 21.124 5.656 21.32 5.616 21.528C5.576 21.728 5.536 21.92 5.496 22.104C5.456 22.28 5.424 22.416 5.4 22.512L4.248 27H2.184L0 18.432H1.788L2.88 23.112C2.912 23.248 2.948 23.416 2.988 23.616C3.028 23.808 3.068 24.012 3.108 24.228C3.148 24.436 3.184 24.64 3.216 24.84C3.256 25.04 3.284 25.212 3.3 25.356C3.316 25.204 3.34 25.032 3.372 24.84C3.404 24.64 3.44 24.44 3.48 24.24C3.52 24.032 3.556 23.84 3.588 23.664C3.628 23.48 3.664 23.336 3.696 23.232L4.944 18.432H6.66L7.908 23.232C7.932 23.336 7.964 23.48 8.004 23.664C8.044 23.84 8.084 24.032 8.124 24.24C8.164 24.448 8.2 24.652 8.232 24.852C8.264 25.044 8.288 25.212 8.304 25.356C8.328 25.156 8.364 24.92 8.412 24.648C8.46 24.368 8.512 24.088 8.568 23.808C8.632 23.528 8.684 23.296 8.724 23.112L9.816 18.432H11.604ZM20.7816 27H18.9696V23.304H15.5736V27H13.7616V18.432H15.5736V21.792H18.9696V18.432H20.7816V27ZM28.9493 27H24.0173V18.432H28.9493V19.92H25.8293V21.804H28.7333V23.292H25.8293V25.5H28.9493V27ZM34.3082 18.432C35.0842 18.432 35.7242 18.528 36.2282 18.72C36.7322 18.904 37.1082 19.188 37.3562 19.572C37.6042 19.948 37.7282 20.424 37.7282 21C37.7282 21.392 37.6522 21.736 37.5002 22.032C37.3562 22.32 37.1602 22.568 36.9122 22.776C36.6722 22.976 36.4122 23.14 36.1322 23.268L38.6522 27H36.6362L34.5962 23.712H33.6242V27H31.8122V18.432H34.3082ZM34.1762 19.92H33.6242V22.236H34.2122C34.6122 22.236 34.9362 22.192 35.1842 22.104C35.4322 22.016 35.6122 21.884 35.7242 21.708C35.8362 21.524 35.8922 21.304 35.8922 21.048C35.8922 20.776 35.8282 20.56 35.7002 20.4C35.5802 20.232 35.3922 20.112 35.1362 20.04C34.8882 19.96 34.5682 19.92 34.1762 19.92ZM45.7461 27H40.8141V18.432H45.7461V19.92H42.6261V21.804H45.5301V23.292H42.6261V25.5H45.7461V27ZM55.4701 21.96L57.2581 18.432H59.2141L56.3701 23.664V27H54.5701V23.724L51.7261 18.432H53.6941L55.4701 21.96ZM68.916 22.704C68.916 23.368 68.832 23.972 68.664 24.516C68.504 25.052 68.256 25.516 67.92 25.908C67.592 26.3 67.168 26.6 66.648 26.808C66.136 27.016 65.532 27.12 64.836 27.12C64.14 27.12 63.532 27.016 63.012 26.808C62.5 26.592 62.076 26.292 61.74 25.908C61.412 25.516 61.164 25.048 60.996 24.504C60.836 23.96 60.756 23.356 60.756 22.692C60.756 21.804 60.9 21.032 61.188 20.376C61.484 19.72 61.932 19.212 62.532 18.852C63.14 18.484 63.912 18.3 64.848 18.3C65.776 18.3 66.54 18.484 67.14 18.852C67.74 19.212 68.184 19.724 68.472 20.388C68.768 21.044 68.916 21.816 68.916 22.704ZM62.664 22.704C62.664 23.304 62.74 23.82 62.892 24.252C63.044 24.684 63.28 25.016 63.6 25.248C63.92 25.48 64.332 25.596 64.836 25.596C65.356 25.596 65.772 25.48 66.084 25.248C66.404 25.016 66.636 24.684 66.78 24.252C66.932 23.82 67.008 23.304 67.008 22.704C67.008 21.8 66.84 21.092 66.504 20.58C66.168 20.068 65.616 19.812 64.848 19.812C64.336 19.812 63.92 19.928 63.6 20.16C63.28 20.392 63.044 20.724 62.892 21.156C62.74 21.588 62.664 22.104 62.664 22.704ZM78.7428 23.976C78.7428 24.568 78.6108 25.104 78.3468 25.584C78.0908 26.056 77.6988 26.432 77.1708 26.712C76.6508 26.984 75.9908 27.12 75.1908 27.12C74.0548 27.12 73.1908 26.832 72.5988 26.256C72.0068 25.672 71.7108 24.904 71.7108 23.952V18.432H73.5228V23.676C73.5228 24.38 73.6668 24.876 73.9548 25.164C74.2428 25.452 74.6708 25.596 75.2388 25.596C75.6388 25.596 75.9628 25.528 76.2108 25.392C76.4588 25.256 76.6388 25.044 76.7508 24.756C76.8708 24.468 76.9308 24.104 76.9308 23.664V18.432H78.7428V23.976ZM4.704 45L2.64 38.28H2.592C2.6 38.44 2.612 38.68 2.628 39C2.644 39.32 2.66 39.664 2.676 40.032C2.692 40.392 2.7 40.72 2.7 41.016V45H1.08V36.432H3.552L5.58 42.984H5.616L7.764 36.432H10.236V45H8.544V40.944C8.544 40.672 8.548 40.36 8.556 40.008C8.572 39.656 8.584 39.324 8.592 39.012C8.608 38.692 8.62 38.452 8.628 38.292H8.58L6.372 45H4.704ZM18.4123 45H13.4803V36.432H18.4123V37.92H15.2923V39.804H18.1963V41.292H15.2923V43.5H18.4123V45ZM26.2072 45H21.2752V36.432H26.2072V37.92H23.0872V39.804H25.9912V41.292H23.0872V43.5H26.2072V45ZM32.37 45H30.558V37.944H28.23V36.432H34.698V37.944H32.37V45ZM46.5404 45L45.9164 42.96H42.7964L42.1724 45H40.2164L43.2404 36.396H45.4604L48.4964 45H46.5404ZM44.8604 39.444C44.8204 39.308 44.7684 39.136 44.7044 38.928C44.6404 38.72 44.5764 38.508 44.5124 38.292C44.4484 38.076 44.3964 37.888 44.3564 37.728C44.3164 37.888 44.2604 38.088 44.1884 38.328C44.1244 38.56 44.0604 38.784 43.9964 39C43.9404 39.208 43.8964 39.356 43.8644 39.444L43.2524 41.436H45.4844L44.8604 39.444ZM58.2576 45H55.9536L52.2216 38.52H52.1736C52.1816 38.72 52.1896 38.924 52.1976 39.132C52.2056 39.332 52.2136 39.536 52.2216 39.744C52.2376 39.944 52.2496 40.148 52.2576 40.356C52.2656 40.556 52.2736 40.76 52.2816 40.968V45H50.6616V36.432H52.9536L56.6736 42.852H56.7096C56.7016 42.652 56.6936 42.456 56.6856 42.264C56.6776 42.064 56.6696 41.868 56.6616 41.676C56.6616 41.476 56.6576 41.28 56.6496 41.088C56.6416 40.888 56.6336 40.688 56.6256 40.488V36.432H58.2576V45ZM68.6073 40.632C68.6073 41.592 68.4233 42.396 68.0553 43.044C67.6873 43.692 67.1513 44.18 66.4473 44.508C65.7513 44.836 64.9113 45 63.9273 45H61.5033V36.432H64.1913C65.0873 36.432 65.8633 36.592 66.5193 36.912C67.1833 37.232 67.6953 37.704 68.0553 38.328C68.4233 38.944 68.6073 39.712 68.6073 40.632ZM66.7233 40.68C66.7233 40.048 66.6313 39.528 66.4473 39.12C66.2633 38.712 65.9873 38.412 65.6193 38.22C65.2593 38.02 64.8153 37.92 64.2873 37.92H63.3153V43.5H64.0953C64.9833 43.5 65.6433 43.264 66.0753 42.792C66.5073 42.32 66.7233 41.616 66.7233 40.68ZM78.3993 36.432C79.5033 36.432 80.3073 36.672 80.8113 37.152C81.3233 37.624 81.5793 38.276 81.5793 39.108C81.5793 39.484 81.5233 39.844 81.4113 40.188C81.2993 40.524 81.1113 40.828 80.8473 41.1C80.5913 41.364 80.2513 41.572 79.8273 41.724C79.4033 41.876 78.8793 41.952 78.2553 41.952H77.4753V45H75.6633V36.432H78.3993ZM78.3033 37.92H77.4753V40.464H78.0753C78.4193 40.464 78.7153 40.42 78.9633 40.332C79.2113 40.244 79.4033 40.104 79.5393 39.912C79.6753 39.72 79.7433 39.472 79.7433 39.168C79.7433 38.744 79.6273 38.432 79.3953 38.232C79.1633 38.024 78.7993 37.92 78.3033 37.92ZM86.7744 36.432C87.5504 36.432 88.1904 36.528 88.6944 36.72C89.1984 36.904 89.5744 37.188 89.8224 37.572C90.0704 37.948 90.1944 38.424 90.1944 39C90.1944 39.392 90.1184 39.736 89.9664 40.032C89.8224 40.32 89.6264 40.568 89.3784 40.776C89.1384 40.976 88.8784 41.14 88.5984 41.268L91.1184 45H89.1024L87.0624 41.712H86.0904V45H84.2784V36.432H86.7744ZM86.6424 37.92H86.0904V40.236H86.6784C87.0784 40.236 87.4024 40.192 87.6504 40.104C87.8984 40.016 88.0784 39.884 88.1904 39.708C88.3024 39.524 88.3584 39.304 88.3584 39.048C88.3584 38.776 88.2944 38.56 88.1664 38.4C88.0464 38.232 87.8584 38.112 87.6024 38.04C87.3544 37.96 87.0344 37.92 86.6424 37.92ZM101.056 40.704C101.056 41.368 100.972 41.972 100.804 42.516C100.644 43.052 100.396 43.516 100.06 43.908C99.7323 44.3 99.3083 44.6 98.7883 44.808C98.2763 45.016 97.6723 45.12 96.9763 45.12C96.2803 45.12 95.6723 45.016 95.1523 44.808C94.6403 44.592 94.2163 44.292 93.8803 43.908C93.5523 43.516 93.3043 43.048 93.1363 42.504C92.9763 41.96 92.8963 41.356 92.8963 40.692C92.8963 39.804 93.0403 39.032 93.3283 38.376C93.6243 37.72 94.0723 37.212 94.6723 36.852C95.2803 36.484 96.0523 36.3 96.9883 36.3C97.9163 36.3 98.6803 36.484 99.2803 36.852C99.8803 37.212 100.324 37.724 100.612 38.388C100.908 39.044 101.056 39.816 101.056 40.704ZM94.8043 40.704C94.8043 41.304 94.8803 41.82 95.0323 42.252C95.1843 42.684 95.4203 43.016 95.7403 43.248C96.0603 43.48 96.4723 43.596 96.9763 43.596C97.4963 43.596 97.9123 43.48 98.2243 43.248C98.5443 43.016 98.7763 42.684 98.9203 42.252C99.0723 41.82 99.1483 41.304 99.1483 40.704C99.1483 39.8 98.9803 39.092 98.6443 38.58C98.3083 38.068 97.7563 37.812 96.9883 37.812C96.4763 37.812 96.0603 37.928 95.7403 38.16C95.4203 38.392 95.1843 38.724 95.0323 39.156C94.8803 39.588 94.8043 40.104 94.8043 40.704ZM111.015 40.632C111.015 41.592 110.831 42.396 110.463 43.044C110.095 43.692 109.559 44.18 108.855 44.508C108.159 44.836 107.319 45 106.335 45H103.911V36.432H106.599C107.495 36.432 108.271 36.592 108.927 36.912C109.591 37.232 110.103 37.704 110.463 38.328C110.831 38.944 111.015 39.712 111.015 40.632ZM109.131 40.68C109.131 40.048 109.039 39.528 108.855 39.12C108.671 38.712 108.395 38.412 108.027 38.22C107.667 38.02 107.223 37.92 106.695 37.92H105.723V43.5H106.503C107.391 43.5 108.051 43.264 108.483 42.792C108.915 42.32 109.131 41.616 109.131 40.68ZM120.846 41.976C120.846 42.568 120.714 43.104 120.45 43.584C120.194 44.056 119.802 44.432 119.274 44.712C118.754 44.984 118.094 45.12 117.294 45.12C116.158 45.12 115.294 44.832 114.702 44.256C114.11 43.672 113.814 42.904 113.814 41.952V36.432H115.626V41.676C115.626 42.38 115.77 42.876 116.058 43.164C116.346 43.452 116.774 43.596 117.342 43.596C117.742 43.596 118.066 43.528 118.314 43.392C118.562 43.256 118.742 43.044 118.854 42.756C118.974 42.468 119.034 42.104 119.034 41.664V36.432H120.846V41.976ZM127.66 37.824C127.316 37.824 127.008 37.892 126.736 38.028C126.472 38.164 126.248 38.36 126.064 38.616C125.88 38.864 125.74 39.168 125.644 39.528C125.556 39.888 125.512 40.292 125.512 40.74C125.512 41.348 125.584 41.868 125.728 42.3C125.88 42.724 126.116 43.048 126.436 43.272C126.756 43.496 127.164 43.608 127.66 43.608C128.012 43.608 128.36 43.568 128.704 43.488C129.056 43.408 129.436 43.296 129.844 43.152V44.676C129.468 44.828 129.096 44.94 128.728 45.012C128.36 45.084 127.948 45.12 127.492 45.12C126.612 45.12 125.884 44.94 125.308 44.58C124.74 44.212 124.32 43.7 124.048 43.044C123.776 42.38 123.64 41.608 123.64 40.728C123.64 40.08 123.728 39.488 123.904 38.952C124.08 38.408 124.336 37.94 124.672 37.548C125.016 37.156 125.436 36.852 125.932 36.636C126.436 36.42 127.012 36.312 127.66 36.312C128.084 36.312 128.508 36.368 128.932 36.48C129.364 36.584 129.776 36.728 130.168 36.912L129.58 38.388C129.26 38.236 128.936 38.104 128.608 37.992C128.288 37.88 127.972 37.824 127.66 37.824ZM137.677 45H132.745V36.432H137.677V37.92H134.557V39.804H137.461V41.292H134.557V43.5H137.677V45Z" fill="#292929"/>
</svg>
