<svg width="1440" height="68" viewBox="0 0 1440 68" fill="none" xmlns="http://www.w3.org/2000/svg">
<rect width="1440" height="68" fill="#FFE300"/>
<path d="M46.266 17.914H54.528C54.852 17.914 55.122 17.914 55.518 17.878C55.554 16.78 56.418 15.934 57.498 15.934C58.596 15.934 59.478 16.816 59.478 17.914C59.478 19.012 58.596 19.912 57.516 19.912C57.48 19.912 57.444 19.912 57.318 19.894C56.688 22.324 55.932 24.142 54.888 25.708C53.79 27.364 52.224 28.876 50.406 30.064C49.38 30.748 48.534 31.18 46.986 31.846C46.482 30.874 46.248 30.532 45.402 29.704C46.986 29.2 48.012 28.732 49.344 27.868C52.152 26.05 53.916 23.512 54.798 20.02H46.23C45.024 20.02 44.61 20.038 43.962 20.128V17.788C44.664 17.896 45.042 17.914 46.266 17.914ZM57.498 16.888C56.94 16.888 56.472 17.356 56.472 17.914C56.472 18.472 56.94 18.94 57.498 18.94C58.056 18.94 58.524 18.472 58.524 17.914C58.524 17.338 58.074 16.888 57.498 16.888ZM63.6 16.834L66.156 16.852C66.084 17.338 66.066 17.788 66.048 18.67L65.958 28.948C67.83 28.588 69.522 27.904 70.872 26.968C72.528 25.834 73.644 24.592 74.544 22.846C75.246 23.782 75.48 24.034 76.254 24.682C75.012 26.59 73.86 27.796 72.24 28.876C70.44 30.082 68.604 30.784 65.688 31.342C65.202 31.432 64.986 31.504 64.608 31.648L63.456 30.262C63.582 29.776 63.618 29.452 63.618 28.408L63.69 18.688C63.69 17.428 63.69 17.428 63.6 16.834ZM83.472 18.742V22.378C86.478 21.766 89.97 20.362 91.338 19.174L92.778 21.208C92.58 21.28 92.508 21.316 91.518 21.802C88.98 23.08 86.676 23.836 83.472 24.466V26.788C83.472 26.788 83.472 26.806 83.454 26.842C83.454 26.932 83.454 27.022 83.454 27.076C83.454 28.12 83.526 28.534 83.778 28.786C84.084 29.11 85.11 29.254 86.856 29.254C88.062 29.254 89.718 29.146 91.032 28.966C91.896 28.858 92.292 28.768 93.084 28.534L93.192 30.928C92.832 30.928 92.706 30.946 91.41 31.072C89.97 31.216 87.72 31.342 86.37 31.342C84.12 31.342 82.878 31.108 82.176 30.568C81.672 30.19 81.402 29.614 81.294 28.732C81.258 28.426 81.24 28.12 81.24 27.076L81.222 18.724C81.222 17.806 81.222 17.554 81.15 17.068H83.562C83.49 17.536 83.472 17.914 83.472 18.742ZM90.762 17.23L92.094 16.492C92.85 17.284 93.174 17.752 93.786 18.868L92.436 19.624C91.878 18.598 91.41 17.932 90.762 17.23ZM95.712 17.716L94.38 18.49C93.858 17.554 93.408 16.906 92.742 16.168L94.038 15.466C94.758 16.204 95.172 16.78 95.712 17.716ZM107.227 29.416H109.117C109.945 29.416 110.287 29.398 110.773 29.308V31.36C110.287 31.306 109.873 31.288 109.117 31.288H99.7751C98.9831 31.288 98.6051 31.306 98.1191 31.36V29.308C98.6231 29.398 98.9471 29.416 99.7751 29.416H105.085C105.391 27.814 105.769 25.276 105.949 23.638H101.485C100.621 23.638 100.351 23.656 99.8831 23.71V21.676C100.333 21.748 100.837 21.784 101.539 21.784H106.093C106.723 21.784 106.993 21.748 107.425 21.622L108.415 22.486C108.199 23.044 108.199 23.044 108.001 24.538C107.731 26.518 107.533 27.796 107.227 29.416ZM114.733 25.348V22.846C115.525 22.954 115.867 22.972 117.649 22.972H127.243C129.025 22.972 129.367 22.954 130.159 22.846V25.348C129.439 25.258 129.241 25.258 127.225 25.258H117.667C115.651 25.258 115.453 25.258 114.733 25.348ZM147.367 20.758L148.285 21.694C148.195 21.982 148.069 22.414 147.997 22.72C147.457 24.952 146.845 26.59 145.927 28.174C146.845 29.218 147.547 29.776 148.987 30.586C148.483 31.27 148.231 31.756 147.979 32.494C146.575 31.54 145.801 30.856 144.847 29.722C143.947 30.82 143.119 31.558 141.697 32.53C141.391 31.81 141.157 31.45 140.599 30.82C140.365 31.396 140.203 31.738 139.735 32.584C139.303 31.99 139.033 31.72 138.475 31.342C138.493 31.882 138.511 32.026 138.547 32.422H136.531C136.621 31.9 136.639 31.468 136.639 30.334V26.194H134.965C134.803 28.282 134.749 28.714 134.551 29.722C134.281 30.982 134.119 31.522 133.615 32.62C133.075 31.972 132.733 31.684 131.941 31.216C132.877 29.686 133.219 27.238 133.219 22.252V18.256C133.219 17.482 133.183 16.888 133.111 16.438H135.145C135.109 16.798 135.109 16.798 135.073 18.274V20.686H136.567V17.716C136.567 16.978 136.549 16.546 136.477 16.06H138.439C138.385 16.51 138.349 17.05 138.349 17.716V20.686C139.069 20.668 139.213 20.668 139.555 20.614V22.486C139.195 22.45 138.889 22.432 138.007 22.432H135.055L135.019 24.466H137.017C137.701 24.466 138.097 24.448 138.511 24.412C138.475 24.79 138.457 25.132 138.457 25.87V30.334C138.457 30.514 138.457 30.514 138.457 30.874C139.681 28.912 140.095 25.906 140.095 19.21C140.095 17.842 140.077 17.158 140.023 16.51C140.509 16.582 141.103 16.6 141.985 16.6H146.449C147.313 16.6 148.015 16.564 148.573 16.492V18.49C147.979 18.436 147.205 18.4 146.521 18.4H141.931V20.848H145.567C146.485 20.848 146.989 20.83 147.367 20.758ZM141.895 22.54C141.733 26.41 141.355 28.876 140.653 30.694C141.949 29.92 142.777 29.218 143.713 28.102C142.795 26.554 142.327 25.132 141.895 22.54ZM146.107 22.54H143.479C143.803 24.286 144.181 25.438 144.775 26.518C145.405 25.33 145.747 24.304 146.107 22.54ZM168.265 27.022L170.857 26.752C170.929 27.562 171.037 27.922 171.361 28.336C171.883 29.02 172.819 29.398 173.989 29.398C175.789 29.398 176.869 28.588 176.869 27.238C176.869 26.5 176.527 25.888 175.969 25.582C175.429 25.294 175.321 25.276 172.837 24.7C171.487 24.394 170.767 24.106 170.119 23.602C169.201 22.882 168.733 21.892 168.733 20.686C168.733 18.184 170.749 16.564 173.845 16.564C175.897 16.564 177.445 17.194 178.327 18.382C178.777 18.976 178.993 19.516 179.209 20.47L176.635 20.776C176.527 20.164 176.401 19.858 176.095 19.498C175.627 18.94 174.835 18.634 173.845 18.634C172.279 18.634 171.217 19.426 171.217 20.596C171.217 21.352 171.613 21.874 172.441 22.234C172.837 22.396 172.981 22.432 174.979 22.882C176.401 23.188 177.265 23.53 177.913 23.98C178.939 24.736 179.407 25.726 179.407 27.076C179.407 28.354 179.011 29.398 178.273 30.136C177.319 31.054 175.897 31.504 173.971 31.504C172.495 31.504 171.055 31.144 170.191 30.568C169.471 30.082 168.949 29.398 168.607 28.516C168.445 28.102 168.373 27.76 168.265 27.022ZM191.122 26.644H183.292C183.382 27.634 183.544 28.138 183.958 28.66C184.48 29.308 185.29 29.668 186.208 29.668C187.09 29.668 187.846 29.344 188.368 28.768C188.584 28.516 188.71 28.318 188.89 27.832L191.014 28.516C190.6 29.38 190.366 29.722 189.916 30.172C188.98 31.09 187.72 31.558 186.208 31.558C183.022 31.558 181.006 29.434 181.006 26.068C181.006 22.738 183.004 20.56 186.082 20.56C188.188 20.56 189.844 21.604 190.564 23.404C190.906 24.268 191.032 24.916 191.086 26.14C191.086 26.176 191.086 26.23 191.122 26.644ZM183.346 24.862H188.782C188.656 24.07 188.44 23.584 187.99 23.134C187.504 22.648 186.892 22.414 186.046 22.414C184.642 22.414 183.616 23.35 183.346 24.862ZM202.277 23.818L200.081 24.34C199.883 23.782 199.757 23.53 199.523 23.242C199.091 22.702 198.461 22.414 197.669 22.414C195.905 22.414 194.807 23.8 194.807 26.032C194.807 28.282 195.923 29.668 197.741 29.668C198.641 29.668 199.361 29.308 199.811 28.66C199.973 28.408 200.063 28.21 200.171 27.76L202.403 28.21C202.151 28.93 201.971 29.308 201.647 29.74C200.783 30.928 199.397 31.558 197.687 31.558C194.519 31.558 192.467 29.416 192.467 26.086C192.467 24.394 193.007 22.936 193.997 21.928C194.879 21.028 196.139 20.56 197.615 20.56C199.379 20.56 200.783 21.244 201.647 22.504C201.881 22.864 202.025 23.152 202.277 23.818ZM211.691 20.884L211.061 23.152C210.305 22.936 209.927 22.864 209.459 22.864C208.559 22.864 207.875 23.152 207.371 23.746C206.921 24.268 206.741 24.682 206.633 25.546V28.876C206.633 29.848 206.669 30.37 206.759 31.216H204.185C204.275 30.334 204.311 29.812 204.311 28.876V23.224C204.311 22.126 204.293 21.622 204.185 20.884H206.633V22.576C207.281 21.298 208.397 20.686 210.017 20.686C210.449 20.686 210.881 20.74 211.691 20.884ZM222.693 26.644H214.863C214.953 27.634 215.115 28.138 215.529 28.66C216.051 29.308 216.861 29.668 217.779 29.668C218.661 29.668 219.417 29.344 219.939 28.768C220.155 28.516 220.281 28.318 220.461 27.832L222.585 28.516C222.171 29.38 221.937 29.722 221.487 30.172C220.551 31.09 219.291 31.558 217.779 31.558C214.593 31.558 212.577 29.434 212.577 26.068C212.577 22.738 214.575 20.56 217.653 20.56C219.759 20.56 221.415 21.604 222.135 23.404C222.477 24.268 222.603 24.916 222.657 26.14C222.657 26.176 222.657 26.23 222.693 26.644ZM214.917 24.862H220.353C220.227 24.07 220.011 23.584 219.561 23.134C219.075 22.648 218.463 22.414 217.617 22.414C216.213 22.414 215.187 23.35 214.917 24.862ZM225.676 18.112H228.25C228.178 18.742 228.124 19.516 228.124 20.326V20.884H228.88C229.726 20.884 230.122 20.866 230.698 20.776V22.9C230.104 22.81 229.762 22.792 228.934 22.792H228.124V28.372C228.124 29.254 228.448 29.578 229.312 29.578C229.78 29.578 230.068 29.488 230.626 29.182L230.95 31.09C230.176 31.378 229.636 31.468 228.7 31.468C226.63 31.468 225.802 30.73 225.802 28.84V22.792H225.118C224.452 22.792 224.11 22.81 223.516 22.9V20.776C224.038 20.866 224.38 20.884 225.136 20.884H225.802V20.326C225.802 19.552 225.748 18.76 225.676 18.112ZM244.748 19.048V28.876C244.748 29.848 244.784 30.478 244.892 31.216H242.174C242.282 30.46 242.318 29.848 242.318 28.876V19.048H239.888C238.826 19.048 238.052 19.084 237.422 19.174V16.762C238.07 16.852 238.844 16.888 239.87 16.888H246.998C248.294 16.888 248.96 16.852 249.644 16.762V19.174C248.978 19.084 248.294 19.048 246.998 19.048H244.748ZM256.955 20.884L256.325 23.152C255.569 22.936 255.191 22.864 254.723 22.864C253.823 22.864 253.139 23.152 252.635 23.746C252.185 24.268 252.005 24.682 251.897 25.546V28.876C251.897 29.848 251.933 30.37 252.023 31.216H249.449C249.539 30.334 249.575 29.812 249.575 28.876V23.224C249.575 22.126 249.557 21.622 249.449 20.884H251.897V22.576C252.545 21.298 253.661 20.686 255.281 20.686C255.713 20.686 256.145 20.74 256.955 20.884ZM265.112 31.216V30.046C264.392 30.73 263.942 30.982 263.204 31.18C262.682 31.324 262.106 31.396 261.53 31.396C259.334 31.396 258.002 30.262 258.002 28.372C258.002 27.112 258.794 25.978 260.036 25.456C261.206 24.97 262.538 24.79 265.112 24.736V23.818C265.112 22.774 264.41 22.234 263.042 22.234C262.322 22.234 261.584 22.432 261.17 22.756C260.828 23.008 260.666 23.26 260.45 23.908L258.146 23.494C258.56 22.45 258.884 21.982 259.568 21.496C260.45 20.848 261.458 20.578 263.006 20.578C264.734 20.578 265.778 20.884 266.552 21.64C267.164 22.216 267.398 22.9 267.398 24.124V28.966C267.398 29.92 267.434 30.406 267.542 31.216H265.112ZM265.112 27.202V26.302C261.674 26.374 260.324 26.968 260.324 28.372C260.324 29.218 260.954 29.74 261.962 29.74C262.916 29.74 263.852 29.38 264.464 28.786C264.896 28.354 265.112 27.832 265.112 27.202ZM279.058 23.818L276.862 24.34C276.664 23.782 276.538 23.53 276.304 23.242C275.872 22.702 275.242 22.414 274.45 22.414C272.686 22.414 271.588 23.8 271.588 26.032C271.588 28.282 272.704 29.668 274.522 29.668C275.422 29.668 276.142 29.308 276.592 28.66C276.754 28.408 276.844 28.21 276.952 27.76L279.184 28.21C278.932 28.93 278.752 29.308 278.428 29.74C277.564 30.928 276.178 31.558 274.468 31.558C271.3 31.558 269.248 29.416 269.248 26.086C269.248 24.394 269.788 22.936 270.778 21.928C271.66 21.028 272.92 20.56 274.396 20.56C276.16 20.56 277.564 21.244 278.428 22.504C278.662 22.864 278.806 23.152 279.058 23.818ZM280.966 16.888H283.504C283.414 17.572 283.378 18.202 283.378 19.246V25.168L286.078 22.486C286.906 21.694 287.212 21.334 287.5 20.884H290.866C289.84 21.802 289.84 21.802 289.066 22.54L286.51 24.97L289.552 29.128C290.776 30.802 290.776 30.802 291.19 31.216H287.986C287.77 30.64 287.554 30.28 286.798 29.182L284.854 26.338L283.378 27.742V28.912C283.378 30.082 283.396 30.514 283.504 31.216H280.966C281.056 30.478 281.092 29.866 281.092 28.876V19.246C281.092 18.166 281.056 17.572 280.966 16.888ZM310.943 31.216H307.973C307.937 30.784 307.631 29.866 307.037 28.336C306.065 25.852 305.435 25.186 304.049 25.186H301.367V28.858C301.367 29.938 301.403 30.514 301.511 31.216H298.829C298.937 30.46 298.973 29.974 298.973 28.876V19.174C298.973 18.22 298.937 17.68 298.829 16.834C299.585 16.87 300.143 16.888 301.133 16.888H305.453C308.189 16.888 309.755 18.256 309.755 20.632C309.755 21.784 309.449 22.684 308.837 23.314C308.333 23.836 307.865 24.07 306.839 24.358C307.973 24.718 308.315 25.222 310.097 29.434C310.241 29.758 310.691 30.73 310.943 31.216ZM301.367 23.134H304.985C305.651 23.134 306.281 22.9 306.695 22.486C307.073 22.108 307.271 21.586 307.271 20.902C307.271 19.606 306.533 18.94 305.057 18.94H301.367V23.134ZM322.273 26.644H314.443C314.533 27.634 314.695 28.138 315.109 28.66C315.631 29.308 316.441 29.668 317.359 29.668C318.241 29.668 318.997 29.344 319.519 28.768C319.735 28.516 319.861 28.318 320.041 27.832L322.165 28.516C321.751 29.38 321.517 29.722 321.067 30.172C320.131 31.09 318.871 31.558 317.359 31.558C314.173 31.558 312.157 29.434 312.157 26.068C312.157 22.738 314.155 20.56 317.233 20.56C319.339 20.56 320.995 21.604 321.715 23.404C322.057 24.268 322.183 24.916 322.237 26.14C322.237 26.176 322.237 26.23 322.273 26.644ZM314.497 24.862H319.933C319.807 24.07 319.591 23.584 319.141 23.134C318.655 22.648 318.043 22.414 317.197 22.414C315.793 22.414 314.767 23.35 314.497 24.862ZM333.428 23.818L331.232 24.34C331.034 23.782 330.908 23.53 330.674 23.242C330.242 22.702 329.612 22.414 328.82 22.414C327.056 22.414 325.958 23.8 325.958 26.032C325.958 28.282 327.074 29.668 328.892 29.668C329.792 29.668 330.512 29.308 330.962 28.66C331.124 28.408 331.214 28.21 331.322 27.76L333.554 28.21C333.302 28.93 333.122 29.308 332.798 29.74C331.934 30.928 330.548 31.558 328.838 31.558C325.67 31.558 323.618 29.416 323.618 26.086C323.618 24.394 324.158 22.936 325.148 21.928C326.03 21.028 327.29 20.56 328.766 20.56C330.53 20.56 331.934 21.244 332.798 22.504C333.032 22.864 333.176 23.152 333.428 23.818ZM340.25 31.558C336.956 31.558 334.868 29.434 334.868 26.068C334.868 22.72 336.956 20.578 340.232 20.578C343.49 20.578 345.56 22.702 345.56 26.032C345.56 29.362 343.454 31.558 340.25 31.558ZM340.232 22.45C338.342 22.45 337.19 23.818 337.19 26.068C337.19 28.282 338.342 29.65 340.214 29.65C342.086 29.65 343.238 28.3 343.238 26.104C343.238 23.782 342.14 22.45 340.232 22.45ZM354.9 20.884L354.27 23.152C353.514 22.936 353.136 22.864 352.668 22.864C351.768 22.864 351.084 23.152 350.58 23.746C350.13 24.268 349.95 24.682 349.842 25.546V28.876C349.842 29.848 349.878 30.37 349.968 31.216H347.394C347.484 30.334 347.52 29.812 347.52 28.876V23.224C347.52 22.126 347.502 21.622 347.394 20.884H349.842V22.576C350.49 21.298 351.606 20.686 353.226 20.686C353.658 20.686 354.09 20.74 354.9 20.884ZM364.3 31.216V30.334C364.3 30.118 364.3 29.92 364.318 29.686C363.382 31 362.428 31.468 360.682 31.468C359.422 31.468 358.468 31.18 357.676 30.55C356.47 29.614 355.804 27.976 355.804 26.032C355.804 22.738 357.694 20.65 360.664 20.65C361.78 20.65 362.698 20.92 363.4 21.478C363.724 21.73 363.922 21.946 364.318 22.468C364.318 22.252 364.318 22.252 364.3 21.892C364.282 21.766 364.282 21.424 364.282 21.118V19.318C364.282 18.238 364.246 17.644 364.156 16.888H366.694C366.604 17.752 366.568 18.382 366.568 19.3V28.786C366.568 29.848 366.604 30.424 366.694 31.216H364.3ZM358.144 26.05C358.144 28.192 359.296 29.542 361.096 29.542C362.05 29.542 362.968 29.092 363.508 28.354C363.958 27.76 364.21 26.878 364.21 25.942C364.21 25.06 363.868 24.124 363.346 23.548C362.788 22.936 361.87 22.54 361.006 22.54C359.26 22.54 358.144 23.908 358.144 26.05ZM368.494 28.282L370.96 27.976C371.266 29.2 371.932 29.686 373.336 29.686C374.668 29.686 375.496 29.164 375.496 28.318C375.496 27.958 375.316 27.616 375.028 27.418C374.686 27.184 374.578 27.166 373.138 26.842C371.716 26.536 371.158 26.356 370.546 26.068C369.52 25.582 368.962 24.718 368.962 23.674C368.962 23.044 369.16 22.45 369.52 22C370.258 21.064 371.482 20.596 373.12 20.596C374.596 20.596 375.766 20.956 376.504 21.64C376.972 22.09 377.224 22.54 377.476 23.422L375.1 23.728C374.902 22.738 374.29 22.306 373.12 22.306C372.004 22.306 371.248 22.81 371.248 23.566C371.248 23.908 371.446 24.214 371.806 24.412C372.202 24.61 372.58 24.718 373.606 24.952C375.442 25.348 376.18 25.6 376.774 26.05C377.476 26.554 377.818 27.292 377.818 28.282C377.818 29.02 377.476 29.812 376.936 30.316C376.108 31.09 374.848 31.486 373.21 31.486C371.356 31.486 369.97 30.928 369.196 29.884C368.872 29.452 368.71 29.092 368.494 28.282Z" fill="black"/>
<path d="M45.09 44.269V43.246C44.782 43.543 44.617 43.675 44.188 44.016C43.847 43.598 43.704 43.444 43.385 43.18C44.419 42.432 45.024 41.816 45.431 41.057C45.53 40.87 45.618 40.683 45.662 40.518L46.938 40.76C46.85 40.892 46.85 40.892 46.707 41.156C46.597 41.343 46.509 41.486 46.355 41.717H51.69C52.361 41.717 52.735 41.695 53.076 41.651V42.861C52.713 42.828 52.559 42.817 51.998 42.806V44.269H52.427C52.944 44.269 53.186 44.258 53.505 44.203V45.435C53.186 45.38 52.933 45.369 52.427 45.369H51.998V46.843H52.218C52.735 46.843 52.977 46.832 53.263 46.788V47.998C52.977 47.943 52.713 47.932 52.24 47.932H44.738C44.309 47.932 44.067 47.943 43.759 47.998V46.788C44.056 46.832 44.342 46.843 44.837 46.843H45.09V45.369H44.617C44.122 45.369 43.869 45.38 43.539 45.435V44.203C43.858 44.258 44.1 44.269 44.617 44.269H45.09ZM46.179 42.806V44.269H47.07V42.806H46.179ZM46.179 45.369V46.843H47.07V45.369H46.179ZM48.071 46.843H48.984V45.369H48.071V46.843ZM48.071 44.269H48.984V42.806H48.071V44.269ZM49.974 46.843H50.909V45.369H49.974V46.843ZM49.974 44.269H50.909V42.806H49.974V44.269ZM53.439 50.143L52.383 50.803C51.987 49.89 51.712 49.428 51.063 48.504L52.009 48.031C52.647 48.812 52.977 49.307 53.439 50.143ZM50.447 50.528L49.248 50.792C49.083 49.725 49.017 49.417 48.731 48.482L49.798 48.24C50.106 49.109 50.249 49.593 50.447 50.528ZM47.895 50.715L46.696 50.825C46.696 50.649 46.696 50.495 46.696 50.374C46.696 49.956 46.608 48.966 46.531 48.427L47.598 48.306C47.785 49.307 47.851 49.791 47.895 50.715ZM44.485 50.869L43.528 50.11C44.199 49.45 44.518 48.977 44.892 48.053L45.904 48.559C45.453 49.626 45.167 50.077 44.485 50.869ZM58.972 49.087L58.719 47.91C58.664 48.053 58.653 48.108 58.598 48.284C58.136 47.767 57.828 47.338 57.487 46.733C57.542 47.481 57.553 47.635 57.553 47.987V49.802C57.553 50.33 57.564 50.616 57.619 50.946H56.343C56.398 50.594 56.42 50.264 56.42 49.78V48.361C56.42 47.921 56.442 47.404 56.464 47.041C55.969 48.251 55.617 48.867 55.034 49.516C54.913 49.087 54.715 48.691 54.473 48.383C54.935 47.91 55.287 47.426 55.661 46.755C55.892 46.348 55.936 46.238 56.244 45.512H55.672C55.188 45.512 54.946 45.523 54.682 45.567V44.401C54.935 44.445 55.166 44.456 55.672 44.456H56.409V41.849C56.409 41.354 56.398 41.035 56.354 40.771H57.608C57.564 41.057 57.553 41.31 57.553 41.838V44.456H58.07C58.488 44.456 58.675 44.445 58.917 44.412V45.556C58.653 45.523 58.433 45.512 58.048 45.512H57.652C58.059 46.205 58.466 46.7 59.071 47.195C58.917 47.47 58.873 47.569 58.763 47.811C59.016 47.8 59.401 47.734 59.775 47.657L62.349 47.085V42.058C62.349 41.42 62.338 41.123 62.283 40.782H63.614C63.559 41.145 63.548 41.442 63.548 42.047V46.821C63.999 46.711 64.197 46.656 64.483 46.546L64.714 47.8C64.417 47.833 64.109 47.888 63.658 47.998L63.548 48.02V49.626C63.548 50.242 63.559 50.572 63.614 50.924H62.283C62.338 50.55 62.349 50.286 62.349 49.615V48.284L60.017 48.812C59.533 48.922 59.214 49.01 58.972 49.087ZM54.605 41.794L55.54 41.376C55.892 42.355 56.057 42.916 56.211 43.752L55.287 44.148C55.111 43.136 54.913 42.454 54.605 41.794ZM58.389 41.354L59.313 41.761C59.027 42.773 58.884 43.158 58.433 44.148L57.63 43.73C57.982 42.993 58.169 42.421 58.389 41.354ZM59.434 42.355L60.204 41.508C61.15 42.168 61.502 42.476 62.129 43.125L61.381 44.049C60.567 43.18 60.512 43.136 59.434 42.355ZM59.093 45.072L59.863 44.258C60.732 44.852 61.205 45.259 61.777 45.875L61.029 46.766C60.259 45.941 59.885 45.611 59.093 45.072ZM71.358 42.949C71.149 44.676 70.764 46.194 70.214 47.437C69.587 48.856 68.883 49.505 67.981 49.505C66.727 49.505 65.825 48.229 65.825 46.458C65.825 45.248 66.254 44.115 67.035 43.257C67.959 42.245 69.257 41.717 70.819 41.717C73.459 41.717 75.175 43.323 75.175 45.798C75.175 47.701 74.185 49.219 72.502 49.901C71.974 50.121 71.545 50.231 70.775 50.363C70.588 49.78 70.456 49.538 70.104 49.076C71.116 48.944 71.776 48.768 72.293 48.471C73.25 47.943 73.822 46.898 73.822 45.721C73.822 44.665 73.349 43.807 72.469 43.279C72.128 43.081 71.842 42.993 71.358 42.949ZM70.016 42.96C69.444 43.026 69.048 43.18 68.597 43.499C67.673 44.159 67.101 45.292 67.101 46.469C67.101 47.371 67.486 48.086 67.97 48.086C68.333 48.086 68.707 47.624 69.103 46.678C69.521 45.688 69.884 44.203 70.016 42.96ZM78.585 50.583L78.343 49.274C78.475 49.285 78.519 49.285 78.629 49.285C78.761 49.285 79.179 49.274 79.41 49.263C80.268 47.536 81.214 44.61 81.291 43.488L82.688 43.829C82.6 44.115 82.589 44.17 82.512 44.423C81.863 46.623 81.412 47.855 80.752 49.164C82.644 48.988 83.095 48.933 84.338 48.713C83.931 47.976 83.469 47.261 82.941 46.546L83.975 45.963C85.042 47.448 85.867 48.878 86.45 50.231L85.361 50.935C85.141 50.363 85.064 50.176 84.855 49.725C83.326 50.022 83.238 50.033 82.05 50.187C81.797 50.22 80.774 50.33 78.97 50.528C78.772 50.55 78.706 50.561 78.585 50.583ZM81.236 41.992V41.442C81.236 41.167 81.225 41.024 81.181 40.815H82.534C82.49 41.002 82.479 41.156 82.479 41.464V41.992H85.207C85.812 41.992 86.153 41.97 86.483 41.926V43.202C86.153 43.158 85.845 43.147 85.207 43.147H78.684C78.673 47.272 78.354 49.087 77.298 50.88C76.781 50.242 76.77 50.242 76.33 49.846C77.188 48.427 77.441 46.975 77.441 43.51C77.441 42.685 77.43 42.322 77.397 41.937C77.738 41.981 78.057 41.992 78.541 41.992H81.236ZM92.016 43.29H89.871C89.508 43.829 89.211 44.148 88.672 44.643C88.32 44.269 88.221 44.17 87.715 43.818C88.584 43.103 88.98 42.608 89.387 41.772C89.563 41.42 89.684 41.09 89.728 40.848L91.004 41.189C90.74 41.739 90.575 42.069 90.52 42.179H92.016V41.794C92.016 41.31 92.005 41.079 91.95 40.771H93.303C93.248 41.09 93.226 41.343 93.226 41.805V42.179H95.448C95.998 42.179 96.328 42.157 96.647 42.113V43.356C96.35 43.312 95.965 43.29 95.459 43.29H93.226V44.676H96.185C96.735 44.676 97.109 44.654 97.439 44.61V45.864C97.076 45.82 96.702 45.798 96.196 45.798H88.859C88.353 45.798 88.001 45.82 87.605 45.864V44.61C87.979 44.654 88.309 44.676 88.815 44.676H92.016V43.29ZM90.08 50.891H88.804C88.848 50.594 88.87 50.143 88.87 49.659V47.624C88.87 47.107 88.859 46.865 88.826 46.579C89.156 46.612 89.42 46.623 89.926 46.623H95.195C95.69 46.623 95.954 46.612 96.284 46.579C96.251 46.865 96.24 47.107 96.24 47.624V49.67C96.24 50.231 96.262 50.572 96.306 50.891H95.019V50.407H90.08V50.891ZM90.08 47.723V49.296H95.03V47.723H90.08ZM105.887 43.158V42.19C105.887 41.662 105.865 41.211 105.81 40.826H107.141C107.097 41.244 107.075 41.64 107.075 42.19V43.158H107.394C107.878 43.158 108.175 43.136 108.461 43.092V44.302C108.164 44.28 107.812 44.258 107.427 44.258H107.075V49.395C107.075 49.967 106.954 50.308 106.701 50.473C106.459 50.638 106.162 50.682 105.348 50.682C104.952 50.682 104.655 50.671 104.182 50.638C104.116 50.154 104.039 49.868 103.83 49.395C104.457 49.472 104.798 49.505 105.183 49.505C105.799 49.505 105.887 49.472 105.887 49.23V44.258H102.895C102.444 44.258 101.96 44.28 101.597 44.324V43.092C101.938 43.136 102.334 43.158 102.84 43.158H105.887ZM101.102 43.323V49.571C101.102 50.066 101.124 50.473 101.157 50.891H99.837C99.881 50.495 99.903 50.121 99.903 49.571V46.326C99.903 45.787 99.903 45.534 99.925 45.094C99.551 45.71 99.375 45.941 98.979 46.348C98.814 45.864 98.649 45.523 98.363 45.094C99.221 44.236 99.87 43.268 100.398 42.036C100.662 41.431 100.783 41.057 100.849 40.661L102.114 41.013C102.037 41.178 101.96 41.365 101.85 41.651C101.718 42.014 101.41 42.707 101.102 43.323ZM102.103 45.611L103.06 44.995C103.819 45.919 104.237 46.557 104.754 47.558L103.731 48.284C103.203 47.118 102.818 46.491 102.103 45.611ZM110.529 43.664L110.474 42.498C110.793 42.531 111.046 42.542 111.53 42.542C112.366 42.542 112.96 42.509 113.796 42.421C113.763 42.333 113.763 42.333 113.675 42.135C113.4 41.497 113.246 41.156 113.235 41.134L114.61 40.947C114.654 41.222 114.764 41.552 115.061 42.278C115.996 42.157 117.272 41.871 118.031 41.618L118.141 42.784C118.031 42.806 118.031 42.806 117.767 42.861C117.03 43.037 115.809 43.279 115.468 43.323C115.644 43.73 115.71 43.873 115.897 44.225C116.843 44.027 117.349 43.917 117.415 43.906C118.042 43.752 118.174 43.708 118.46 43.587L118.57 44.786C118.361 44.819 118.13 44.863 117.877 44.929C117.426 45.039 117.063 45.116 116.799 45.171C116.524 45.226 116.524 45.226 116.392 45.259C116.964 46.205 117.14 46.436 117.866 47.272L116.898 47.965C116.106 47.635 115.446 47.514 114.368 47.514C113.532 47.514 112.894 47.624 112.52 47.822C112.212 47.998 112.047 48.229 112.047 48.493C112.047 48.757 112.234 49.01 112.52 49.131C112.872 49.285 113.455 49.373 114.093 49.373C115.237 49.373 116.788 49.043 117.481 48.658L117.679 50.011C117.47 50.044 117.47 50.044 116.964 50.176C116.029 50.429 115.116 50.55 114.148 50.55C112.883 50.55 112.08 50.385 111.464 50.011C110.936 49.681 110.617 49.12 110.617 48.504C110.617 47.91 110.947 47.36 111.541 46.975C112.113 46.612 112.993 46.425 114.104 46.425C114.775 46.425 115.413 46.502 116.007 46.656C115.831 46.491 115.622 46.183 115.16 45.424C113.994 45.6 113.29 45.644 110.903 45.721C110.716 45.732 110.639 45.732 110.452 45.754L110.408 44.555C110.727 44.599 110.793 44.599 111.541 44.599C112.696 44.599 113.609 44.533 114.654 44.39C114.588 44.258 114.544 44.192 114.456 43.983C114.346 43.752 114.313 43.686 114.225 43.488C113.345 43.587 112.553 43.631 111.277 43.642C110.815 43.642 110.76 43.653 110.529 43.664ZM124.059 43.224H126.919L126.93 42.729V42.377C126.93 41.651 126.919 41.409 126.875 41.156H128.294C128.261 41.409 128.25 41.464 128.25 41.893C128.25 42.564 128.25 42.564 128.239 43.224H128.943C129.724 43.224 129.944 43.213 130.373 43.147V44.489C129.988 44.445 129.691 44.434 128.965 44.434H128.228C128.206 45.754 128.206 45.831 128.151 46.249C127.997 47.657 127.524 48.592 126.567 49.406C125.973 49.912 125.434 50.198 124.422 50.561C124.213 50.088 124.07 49.879 123.597 49.395C124.642 49.076 125.17 48.812 125.698 48.35C126.446 47.701 126.765 46.975 126.864 45.71C126.886 45.457 126.886 45.193 126.908 44.434H124.059V46.084C124.059 46.546 124.07 46.722 124.103 47.008H122.673C122.706 46.766 122.717 46.469 122.717 46.062V44.434H122.046C121.32 44.434 121.023 44.445 120.638 44.489V43.147C121.067 43.213 121.287 43.224 122.068 43.224H122.717V42.124C122.717 41.662 122.706 41.431 122.662 41.145H124.103C124.059 41.508 124.059 41.53 124.059 42.091V43.224ZM131.781 46.546V45.017C132.265 45.083 132.474 45.094 133.563 45.094H139.426C140.515 45.094 140.724 45.083 141.208 45.017V46.546C140.768 46.491 140.647 46.491 139.415 46.491H133.574C132.342 46.491 132.221 46.491 131.781 46.546ZM145.344 42.509V44.731C147.181 44.357 149.315 43.499 150.151 42.773L151.031 44.016C150.91 44.06 150.866 44.082 150.261 44.379C148.71 45.16 147.302 45.622 145.344 46.007V47.426C145.344 47.426 145.344 47.437 145.333 47.459C145.333 47.514 145.333 47.569 145.333 47.602C145.333 48.24 145.377 48.493 145.531 48.647C145.718 48.845 146.345 48.933 147.412 48.933C148.149 48.933 149.161 48.867 149.964 48.757C150.492 48.691 150.734 48.636 151.218 48.493L151.284 49.956C151.064 49.956 150.987 49.967 150.195 50.044C149.315 50.132 147.94 50.209 147.115 50.209C145.74 50.209 144.981 50.066 144.552 49.736C144.244 49.505 144.079 49.153 144.013 48.614C143.991 48.427 143.98 48.24 143.98 47.602L143.969 42.498C143.969 41.937 143.969 41.783 143.925 41.486H145.399C145.355 41.772 145.344 42.003 145.344 42.509ZM149.799 41.585L150.613 41.134C151.075 41.618 151.273 41.904 151.647 42.586L150.822 43.048C150.481 42.421 150.195 42.014 149.799 41.585ZM152.824 41.882L152.01 42.355C151.691 41.783 151.416 41.387 151.009 40.936L151.801 40.507C152.241 40.958 152.494 41.31 152.824 41.882ZM163.263 49.219L162.207 50.363C161.294 49.241 160.029 48.009 158.83 47.096C157.587 48.482 156.322 49.45 154.639 50.275C154.331 49.703 154.199 49.527 153.748 49.054C154.595 48.724 155.123 48.427 155.948 47.844C157.609 46.678 158.929 45.083 159.644 43.367L159.765 43.081C159.589 43.092 159.589 43.092 156.124 43.147C155.596 43.158 155.299 43.18 154.925 43.235L154.881 41.827C155.189 41.882 155.398 41.893 155.849 41.893C155.893 41.893 155.981 41.893 156.113 41.893L159.985 41.838C160.601 41.827 160.689 41.816 160.964 41.717L161.69 42.465C161.547 42.63 161.459 42.784 161.338 43.059C160.832 44.236 160.293 45.193 159.622 46.095C160.315 46.557 160.909 47.019 161.657 47.69C161.932 47.932 161.932 47.932 163.263 49.219ZM166.904 50.264L165.573 50.341C165.562 50.143 165.551 50.077 165.518 49.824C165.309 48.493 165.232 47.646 165.232 46.535C165.232 45.116 165.364 43.862 165.683 42.234C165.804 41.618 165.826 41.508 165.848 41.211L167.3 41.365C167.036 42.014 166.783 43.246 166.607 44.654C166.497 45.479 166.453 46.128 166.442 47.085C166.442 47.327 166.431 47.415 166.42 47.69C166.541 47.305 166.563 47.228 166.992 46.238L167.872 46.634C167.267 47.91 166.893 49.186 166.893 49.967C166.893 50.033 166.893 50.121 166.904 50.264ZM168.422 43.675L168.444 42.355C168.939 42.487 169.522 42.531 170.479 42.531C171.7 42.531 172.745 42.432 173.471 42.234L173.537 43.565C173.449 43.576 173.284 43.598 172.756 43.664C172.052 43.752 171.216 43.796 170.402 43.796C169.599 43.796 169.588 43.796 168.422 43.675ZM169.181 45.49L170.259 45.996C169.709 46.634 169.478 47.107 169.478 47.58C169.478 48.207 170.083 48.537 171.227 48.537C172.195 48.537 173.152 48.383 173.845 48.119L173.955 49.516C173.801 49.527 173.757 49.538 173.504 49.582C172.624 49.725 171.953 49.791 171.227 49.791C169.863 49.791 168.983 49.483 168.499 48.834C168.29 48.559 168.169 48.152 168.169 47.756C168.169 47.041 168.499 46.304 169.181 45.49ZM184.295 42.146L185.208 42.762C185.12 42.85 185.109 42.861 185.01 42.993C184.746 43.312 184.372 43.708 184.042 44.016C184.581 44.324 184.966 44.5 185.714 44.797C185.439 45.171 185.318 45.402 185.142 45.897C183.987 45.38 183.393 45.028 182.48 44.302V44.951C182.26 44.918 182.117 44.907 181.743 44.907H179.312C179.026 44.907 178.817 44.918 178.619 44.951V44.236C177.695 44.984 177.09 45.358 175.88 45.941C175.693 45.468 175.528 45.182 175.286 44.896C176.078 44.588 176.606 44.313 177.354 43.807C176.782 43.213 176.474 42.949 175.88 42.52L176.694 41.794C177.299 42.256 177.772 42.663 178.234 43.136C178.751 42.685 178.927 42.498 179.279 42.025H177.827C177.607 42.025 177.409 42.036 177.156 42.069V40.958C177.431 41.002 177.607 41.013 178.069 41.013H180.137C180.654 41.013 180.852 41.002 181.083 40.969C181.204 41.42 181.358 41.684 181.82 42.212C182.227 41.794 182.546 41.376 182.744 41.024L183.657 41.629C183.371 42.014 182.898 42.531 182.524 42.894C182.799 43.136 182.931 43.246 183.206 43.444C183.679 43.004 184.053 42.553 184.295 42.146ZM179.378 43.928H181.754C181.809 43.928 181.809 43.928 182.029 43.928C181.435 43.4 181.061 42.96 180.511 42.201C180.027 42.905 179.609 43.378 178.993 43.928C179.125 43.928 179.158 43.928 179.378 43.928ZM176.639 49.56H178.498C178.399 49.274 178.212 48.911 178.047 48.669L179.015 48.317H177.838C177.475 48.317 177.244 48.328 177.046 48.35C177.079 48.053 177.09 47.866 177.09 47.547V46.161C177.09 45.875 177.079 45.666 177.046 45.413C177.332 45.446 177.552 45.457 177.915 45.457H183.107C183.492 45.457 183.701 45.446 183.965 45.413C183.932 45.655 183.921 45.831 183.921 46.15V47.547C183.921 47.921 183.932 48.097 183.965 48.35C183.756 48.328 183.536 48.317 183.173 48.317H182.106L183.019 48.647C182.843 48.977 182.59 49.45 182.513 49.56H184.394C184.911 49.56 185.153 49.549 185.472 49.505V50.693C185.142 50.649 184.856 50.638 184.328 50.638H176.716C176.188 50.638 175.913 50.649 175.572 50.693V49.505C175.891 49.549 176.122 49.56 176.639 49.56ZM179.686 49.56H181.325C181.567 49.131 181.787 48.658 181.886 48.317H179.136C179.367 48.746 179.521 49.109 179.686 49.56ZM178.223 46.436V47.327H182.755V46.436H178.223ZM190.191 48.559L189.443 48.317C189.674 47.657 189.784 47.217 189.883 46.524L190.719 46.799C190.565 47.503 190.433 47.954 190.191 48.559ZM190.818 46.007L191.676 45.556C192.193 46.282 192.336 46.513 192.633 47.195L191.786 47.756C191.489 47.041 191.236 46.568 190.818 46.007ZM188.255 44.434H187.98C187.738 44.434 187.573 44.445 187.331 44.467V43.884C187.122 44.071 187.056 44.126 186.825 44.313C186.682 43.862 186.572 43.631 186.319 43.268C187.221 42.641 187.87 41.827 188.222 40.892H189.432C189.806 41.673 190.213 42.146 191.038 42.74C190.73 43.081 190.576 43.312 190.367 43.719L190.279 43.642V44.467C190.037 44.434 189.938 44.434 189.63 44.434H189.311V45.171H189.751C190.081 45.171 190.323 45.16 190.532 45.127V44.214C190.84 44.258 191.148 44.28 191.588 44.28H194.371C194.393 43.95 194.404 43.84 194.415 43.653H192.237C191.742 43.653 191.511 43.664 191.236 43.697V42.652C191.511 42.696 191.72 42.707 192.237 42.707H194.459C194.481 42.432 194.481 42.399 194.492 42.102H192.028C191.566 42.102 191.247 42.113 190.983 42.146V41.09C191.291 41.134 191.588 41.145 192.083 41.145H194.668C195.119 41.145 195.416 41.134 195.68 41.101C195.647 41.354 195.647 41.354 195.614 42.168C195.581 42.74 195.526 43.708 195.482 44.28H195.548C196.01 44.28 196.307 44.258 196.604 44.214V45.303C196.307 45.27 195.966 45.248 195.559 45.248H194.085C194.184 45.853 194.294 46.205 194.613 46.876C195.108 46.403 195.383 46.073 195.68 45.556L196.582 46.194C196.032 46.865 195.57 47.371 195.119 47.756C195.603 48.438 196.032 48.845 196.813 49.34C196.516 49.714 196.362 49.967 196.153 50.418C195.449 49.813 195.163 49.505 194.811 48.999C194.448 48.482 194.272 48.119 193.975 47.294C193.997 47.514 194.019 47.921 194.041 48.515V49.923C194.041 50.66 193.722 50.924 192.831 50.924C192.589 50.924 192.292 50.913 191.863 50.88C191.819 50.374 191.764 50.143 191.61 49.769C191.962 49.846 192.27 49.879 192.468 49.879C192.875 49.879 192.952 49.835 192.952 49.593V48.548C192.567 48.867 192.501 48.933 192.171 49.164C191.984 49.296 191.984 49.296 191.236 49.813C191.06 49.934 191.06 49.934 190.873 50.066L190.521 49.285V49.725C189.399 50.088 188.563 50.308 187.573 50.506C187.056 50.605 187.045 50.605 186.704 50.704L186.539 49.494C186.99 49.494 187.386 49.439 188.255 49.263V46.183H187.683C187.221 46.183 186.88 46.205 186.605 46.238V45.116C186.891 45.149 187.232 45.171 187.694 45.171H188.255V44.434ZM192.952 45.248H191.588C191.159 45.248 190.873 45.259 190.609 45.292V46.238C190.367 46.194 190.147 46.183 189.751 46.183H189.311V49.043C189.729 48.944 189.927 48.878 190.51 48.702V48.933C191.39 48.504 192.127 48.02 192.952 47.338V45.248ZM187.782 43.444H188.002H189.641C189.839 43.444 189.905 43.444 190.048 43.433C189.564 42.949 189.256 42.542 188.882 41.882C188.552 42.509 188.255 42.938 187.782 43.444ZM188.002 48.713L187.122 48.988C187.034 48.229 186.913 47.679 186.66 46.843L187.518 46.579C187.749 47.283 187.859 47.789 188.002 48.713ZM199.244 41.211L200.784 41.233C200.718 41.552 200.696 41.871 200.652 42.718C200.608 43.741 200.542 45.974 200.542 46.755C200.542 47.8 200.608 48.196 200.828 48.526C201.081 48.889 201.609 49.098 202.302 49.098C203.49 49.098 204.447 48.427 204.964 47.217C205.206 46.645 205.349 46.128 205.47 45.369C206.064 45.853 206.262 45.974 206.801 46.216C206.361 47.701 206.031 48.416 205.492 49.021C204.667 49.956 203.578 50.418 202.192 50.418C201.433 50.418 200.729 50.242 200.267 49.934C199.508 49.428 199.189 48.581 199.189 47.107C199.189 46.535 199.211 45.435 199.277 42.674C199.288 42.344 199.288 42.113 199.288 41.959C199.288 41.651 199.277 41.497 199.244 41.211ZM208.398 43.785L208.321 42.355C208.563 42.366 208.684 42.366 208.739 42.366C208.937 42.366 208.937 42.366 210.554 42.256C211.17 42.223 212.996 42.124 216.043 41.981C216.945 41.937 217.11 41.926 217.308 41.871L217.385 43.279C217.264 43.268 217.264 43.268 217.154 43.268C216.494 43.268 215.68 43.488 214.976 43.862C213.579 44.588 212.754 45.688 212.754 46.799C212.754 47.657 213.293 48.317 214.217 48.592C214.756 48.757 215.46 48.878 215.856 48.878C215.867 48.878 215.966 48.878 216.076 48.867L215.878 50.363C215.746 50.33 215.691 50.319 215.504 50.297C214.294 50.143 213.601 49.945 212.93 49.571C211.918 48.999 211.357 48.064 211.357 46.92C211.357 45.985 211.731 45.061 212.402 44.324C212.82 43.873 213.216 43.587 213.931 43.224C213.04 43.356 212.611 43.389 210.224 43.565C209.487 43.62 208.827 43.697 208.398 43.785ZM225.327 43.543L226.57 43.895C226.526 43.983 226.526 43.983 226.438 44.214C226.328 44.522 226.317 44.533 226.284 44.632C226.735 44.742 227.054 44.896 227.428 45.171C228.132 45.699 228.473 46.381 228.473 47.25C228.473 48.449 227.824 49.384 226.581 50C225.932 50.319 225.305 50.484 224.337 50.583C224.216 50.11 224.117 49.912 223.754 49.34C224.645 49.329 225.206 49.208 225.855 48.9C226.735 48.482 227.142 47.943 227.142 47.184C227.142 46.491 226.691 45.93 225.91 45.666C225.305 46.975 224.788 47.767 223.996 48.592C223.006 49.637 222.027 50.176 221.114 50.176C220.091 50.176 219.398 49.395 219.398 48.251C219.398 47.349 219.783 46.48 220.487 45.787C220.927 45.358 221.334 45.083 221.994 44.797C221.994 44.445 222.016 44.005 222.038 43.477C221.917 43.477 221.323 43.466 220.256 43.433C220.146 43.433 220.069 43.433 220.047 43.433C220.014 43.433 219.915 43.433 219.794 43.444V42.212C220.289 42.322 220.938 42.377 221.851 42.377C221.862 42.377 221.873 42.377 222.093 42.377C222.104 42.157 222.104 42.157 222.137 41.717C222.148 41.574 222.159 41.299 222.159 41.09C222.159 41.046 222.159 41.002 222.137 40.914L223.501 40.98C223.413 41.277 223.369 41.563 223.303 42.333C225.063 42.234 226.625 42.014 227.472 41.75L227.527 43.015C227.373 43.026 227.329 43.026 227.098 43.059C225.888 43.257 224.106 43.422 223.226 43.444C223.193 43.917 223.182 44.269 223.171 44.5C223.765 44.379 224.018 44.357 224.689 44.357C224.821 44.357 224.909 44.357 225.107 44.379C225.228 44.027 225.294 43.796 225.327 43.543ZM222.016 46.051C221.532 46.37 221.345 46.535 221.125 46.81C220.795 47.239 220.63 47.69 220.63 48.152C220.63 48.647 220.872 48.955 221.257 48.955C221.565 48.955 221.862 48.823 222.214 48.537C222.071 47.822 222.016 47.118 222.016 46.051ZM223.259 47.712L223.281 47.723C223.325 47.657 223.325 47.657 223.402 47.569C223.919 46.986 224.359 46.282 224.766 45.369C224.645 45.358 224.59 45.358 224.48 45.358C223.996 45.358 223.6 45.413 223.16 45.556C223.171 46.568 223.171 46.678 223.237 47.448C223.248 47.514 223.248 47.514 223.248 47.591C223.248 47.646 223.248 47.657 223.259 47.712ZM232.807 40.881L234.215 41.024C234.149 41.233 234.149 41.233 234.039 41.761C233.984 42.025 233.929 42.245 233.808 42.729C234.567 42.652 235.139 42.553 235.568 42.421L235.601 43.686C235.48 43.697 235.458 43.697 235.249 43.741C234.853 43.807 234.182 43.884 233.5 43.939C233.181 45.039 232.785 46.084 232.29 47.129C232.037 47.668 231.938 47.866 231.52 48.636C231.377 48.9 231.377 48.9 231.311 49.032L230.046 48.328C230.431 47.822 230.739 47.327 231.113 46.568C231.542 45.688 231.729 45.237 232.147 43.972C231.652 43.983 231.586 43.983 231.454 43.983C231.311 43.983 231.245 43.983 231.014 43.972L230.431 43.961V42.707C230.827 42.784 231.245 42.806 231.916 42.806C232.048 42.806 232.235 42.806 232.477 42.795C232.664 42.014 232.785 41.354 232.807 40.881ZM239.847 43.741L239.253 44.874C238.296 44.236 237.317 43.763 236.085 43.334L236.745 42.267C238.043 42.762 238.868 43.147 239.847 43.741ZM239.803 48.702L239.198 49.934C238.802 49.461 238.164 48.944 237.515 48.57C237.526 48.669 237.537 48.746 237.537 48.79C237.537 49.197 237.35 49.67 237.064 49.956C236.679 50.352 236.019 50.572 235.238 50.572C233.786 50.572 232.84 49.846 232.84 48.724C232.84 47.613 233.819 46.832 235.216 46.832C235.546 46.832 235.777 46.854 236.239 46.931C236.206 46.425 236.184 45.996 236.184 45.666C236.184 45.237 236.206 44.918 236.272 44.555L237.548 44.621C237.438 45.028 237.416 45.281 237.416 45.732C237.416 46.172 237.438 46.612 237.515 47.239C238.307 47.591 238.417 47.646 239.253 48.251C239.418 48.361 239.462 48.405 239.638 48.548C239.726 48.636 239.726 48.636 239.803 48.702ZM236.283 48.097C235.898 47.965 235.634 47.921 235.293 47.921C234.578 47.921 234.116 48.218 234.116 48.68C234.116 49.131 234.512 49.395 235.194 49.395C235.942 49.395 236.305 49.087 236.305 48.471C236.305 48.361 236.283 48.097 236.283 48.097ZM241.475 43.972L241.497 42.696C241.893 42.762 242.333 42.795 242.971 42.795C243.103 42.795 243.224 42.795 243.477 42.784C243.576 42.256 243.686 41.409 243.686 41.101C243.686 41.057 243.686 40.991 243.675 40.903L245.127 41.035C245.05 41.288 245.05 41.288 244.918 42.091C244.863 42.399 244.852 42.465 244.808 42.718C245.622 42.641 246.139 42.553 246.689 42.388L246.744 43.653C246.656 43.664 246.656 43.664 246.392 43.708C245.831 43.818 244.951 43.928 244.588 43.939C244.467 44.621 244.192 45.787 243.906 46.788C243.587 47.932 243.4 48.482 242.674 50.429L241.288 49.89C242.047 48.493 242.894 45.93 243.257 43.972C243.18 43.983 243.136 43.983 243.114 43.983H242.476C242.421 43.983 242.311 43.983 242.124 43.972C241.926 43.961 241.772 43.961 241.684 43.961C241.629 43.961 241.574 43.961 241.475 43.972ZM250.198 44.214L250.22 45.523C249.692 45.468 249.384 45.446 248.834 45.446C247.745 45.446 247.019 45.523 245.93 45.765L245.831 44.555C247.393 44.258 247.921 44.203 249.109 44.203C249.406 44.203 249.505 44.203 250.198 44.214ZM245.864 46.524L246.953 46.964C246.513 47.514 246.381 47.789 246.381 48.174C246.381 48.735 246.931 49.021 248.031 49.021C248.834 49.021 249.89 48.845 250.528 48.614L250.627 49.967C250.429 49.989 250.341 50 250.088 50.044C249.175 50.176 248.691 50.22 248.042 50.22C247.063 50.22 246.359 50.077 245.831 49.78C245.358 49.505 245.05 48.977 245.05 48.427C245.05 47.844 245.259 47.349 245.864 46.524ZM259.152 43.752L260.263 43.202C261.11 44.324 261.638 45.424 262.056 46.898L260.802 47.525C260.593 46.59 260.351 45.908 259.933 45.05C259.603 44.401 259.438 44.115 259.152 43.752ZM258.613 41.684L259.471 41.255C259.911 41.728 260.164 42.069 260.505 42.696L259.647 43.147C259.35 42.586 259.009 42.102 258.613 41.684ZM261.748 42.058L260.912 42.531C260.626 42.014 260.296 41.552 259.9 41.112L260.725 40.683C261.154 41.134 261.451 41.53 261.748 42.058ZM254.719 41.046L256.149 41.189C256.116 41.299 256.083 41.42 256.061 41.53C256.039 41.684 256.028 41.739 255.995 41.904C255.962 42.146 255.962 42.146 255.808 42.971C255.764 43.213 255.764 43.224 255.731 43.367C256.05 43.356 256.204 43.345 256.413 43.345C257.139 43.345 257.678 43.543 258.041 43.928C258.415 44.346 258.558 44.874 258.558 45.875C258.558 47.767 258.239 49.274 257.711 49.879C257.403 50.242 257.073 50.374 256.49 50.374C255.984 50.374 255.533 50.286 254.796 50.044C254.807 49.835 254.818 49.67 254.818 49.56C254.818 49.274 254.796 49.054 254.708 48.625C255.302 48.889 255.929 49.065 256.314 49.065C256.633 49.065 256.809 48.856 256.974 48.317C257.15 47.745 257.26 46.744 257.26 45.809C257.26 44.797 257.007 44.5 256.138 44.5C255.918 44.5 255.753 44.511 255.5 44.533C255.17 45.875 255.071 46.194 254.829 46.92C254.444 48.009 254.147 48.713 253.509 50.011C253.454 50.11 253.454 50.11 253.344 50.33C253.311 50.396 253.311 50.418 253.256 50.517L251.98 49.813C252.31 49.384 252.75 48.592 253.124 47.745C253.597 46.667 253.751 46.216 254.191 44.632C253.63 44.698 252.585 44.896 252.222 44.995L252.09 43.697C252.497 43.697 253.828 43.565 254.433 43.466C254.631 42.289 254.719 41.607 254.719 41.244C254.719 41.2 254.719 41.134 254.719 41.046ZM267.457 44.016H265.213C264.762 44.962 264.322 45.622 263.717 46.326C263.431 45.908 263.178 45.644 262.815 45.391C263.64 44.555 264.3 43.4 264.674 42.179C264.817 41.706 264.872 41.475 264.916 41.156L266.17 41.464C266.148 41.552 266.148 41.552 266.071 41.75C266.038 41.827 266.038 41.838 265.961 42.113C265.906 42.278 265.807 42.553 265.664 42.938H267.457V42.102C267.457 41.53 267.435 41.189 267.38 40.782H268.788C268.744 41.145 268.722 41.508 268.722 42.091V42.938H271.01C271.571 42.938 272.044 42.916 272.495 42.872V44.082C272.022 44.038 271.571 44.016 271.043 44.016H268.722V46.04H270.625C271.175 46.04 271.615 46.018 271.978 45.974V47.184C271.582 47.14 271.142 47.118 270.625 47.118H268.722V49.45H271.362C271.989 49.45 272.451 49.428 272.891 49.373V50.627C272.374 50.572 271.978 50.55 271.395 50.55H264.663C264.091 50.55 263.618 50.572 263.101 50.627V49.373C263.574 49.428 264.047 49.45 264.63 49.45H267.457V47.118H265.763C265.246 47.118 264.806 47.14 264.432 47.184V45.974C264.784 46.018 265.147 46.04 265.752 46.04H267.457V44.016ZM275.432 42.74L275.377 41.453C275.63 41.497 275.905 41.508 276.488 41.508C277.148 41.508 278.127 41.464 278.534 41.409C278.754 41.387 278.831 41.365 278.974 41.277L279.843 42.025C279.744 42.157 279.689 42.278 279.612 42.487C279.557 42.619 278.886 44.643 278.787 44.984C279.645 45.105 280.382 45.314 281.218 45.677C281.306 45.116 281.328 44.665 281.328 43.642C281.328 43.4 281.317 43.279 281.284 43.059L282.67 43.114C282.626 43.345 282.615 43.433 282.604 43.851C282.571 44.819 282.516 45.479 282.406 46.183C282.758 46.359 283.242 46.612 283.583 46.81C283.88 46.986 283.924 46.997 284.089 47.074L283.594 48.526C283.275 48.251 282.637 47.822 282.076 47.503C281.768 48.317 281.438 48.856 280.877 49.439C280.393 49.945 279.843 50.352 279.216 50.682C278.754 50.11 278.644 50 278.215 49.692C279.04 49.296 279.469 49.01 279.92 48.537C280.36 48.064 280.723 47.47 280.899 46.909C280.118 46.535 279.469 46.326 278.424 46.15C277.94 47.602 277.654 48.306 277.335 48.856C276.928 49.56 276.433 49.901 275.828 49.901C274.816 49.901 274.068 49.01 274.068 47.811C274.068 46.799 274.563 45.941 275.432 45.402C276.004 45.05 276.587 44.907 277.511 44.874C277.797 44.005 277.929 43.587 278.204 42.575C277.643 42.619 277.379 42.63 276.301 42.674C275.85 42.696 275.652 42.707 275.432 42.74ZM277.17 46.029C276.433 46.139 276.048 46.315 275.707 46.689C275.432 46.986 275.289 47.36 275.289 47.745C275.289 48.196 275.531 48.559 275.828 48.559C276.037 48.559 276.202 48.361 276.455 47.866C276.675 47.426 276.939 46.744 277.17 46.029ZM289.259 44.313V41.904C289.259 41.376 289.237 41.101 289.193 40.815H290.568C290.524 41.134 290.502 41.398 290.502 41.904V44.313H292.856V42.52C292.856 42.157 292.845 41.915 292.812 41.651H294.132C294.088 41.981 294.077 42.201 294.077 42.608V44.797C294.077 45.083 294.088 45.325 294.11 45.501C293.868 45.479 293.604 45.468 293.34 45.468H290.502V49.076H293.219V47.25C293.219 46.876 293.208 46.59 293.164 46.315H294.495C294.462 46.601 294.44 46.92 294.44 47.36V49.736C294.44 50.253 294.462 50.539 294.506 50.836H293.219V50.264H286.674V50.836H285.387C285.431 50.506 285.453 50.176 285.453 49.736V47.404C285.453 46.975 285.431 46.634 285.398 46.348H286.729C286.685 46.612 286.674 46.854 286.674 47.294V49.076H289.259V45.468H286.619C286.322 45.468 286.091 45.479 285.827 45.501C285.849 45.259 285.86 45.05 285.86 44.797V42.619C285.86 42.223 285.849 41.926 285.805 41.651H287.125C287.092 41.893 287.081 42.157 287.081 42.531V44.313H289.259ZM302.547 44.148L302.536 45.094C302.536 45.138 302.547 45.226 302.547 45.358C302.789 45.864 302.899 46.315 302.899 46.909C302.899 48.108 302.327 49.142 301.26 49.879C300.798 50.198 300.292 50.429 299.269 50.781C298.961 50.099 298.851 49.934 298.488 49.538C299.39 49.362 299.841 49.208 300.358 48.9C301.106 48.471 301.546 47.91 301.634 47.294C301.315 47.8 300.743 48.075 300.017 48.075C299.511 48.075 299.115 47.954 298.741 47.679C298.224 47.305 297.982 46.821 297.982 46.194C297.982 45.028 298.895 44.192 300.171 44.192C300.644 44.192 301.062 44.313 301.315 44.522C301.304 44.467 301.304 44.467 301.304 44.39C301.293 44.368 301.293 43.752 301.293 43.455C299.72 43.499 298.686 43.532 298.202 43.565C296.541 43.686 296.541 43.686 296.244 43.73L296.2 42.421C296.442 42.443 296.541 42.443 296.739 42.443C297.014 42.443 297.19 42.443 298.609 42.388C299.324 42.366 299.434 42.366 300.336 42.344C300.699 42.333 300.699 42.333 301.271 42.311C301.26 41.266 301.26 41.266 301.205 40.98L302.591 40.969C302.547 41.31 302.547 41.332 302.536 42.278C304.45 42.267 305.308 42.245 305.715 42.201L305.726 43.466C305.319 43.433 304.791 43.411 303.878 43.411C303.614 43.411 303.416 43.411 302.547 43.433V44.148ZM301.282 45.963C301.282 45.501 300.897 45.204 300.292 45.204C299.731 45.204 299.269 45.6 299.269 46.084C299.269 46.59 299.654 46.953 300.204 46.953C300.831 46.953 301.282 46.535 301.282 45.963ZM316.011 41.585L316.748 42.421C316.594 42.608 316.594 42.619 316.308 43.191C315.923 44.005 315.285 44.83 314.614 45.402C314.174 45.787 313.811 46.029 313.294 46.315C312.964 45.853 312.799 45.688 312.304 45.314C313.041 44.984 313.459 44.731 313.91 44.302C314.361 43.884 314.702 43.433 314.955 42.905H309.18C308.41 42.905 308.135 42.916 307.684 42.971V41.596C308.102 41.662 308.443 41.684 309.202 41.684H314.944C315.604 41.684 315.703 41.673 316.011 41.585ZM310.786 43.807H312.282C312.249 44.016 312.249 44.027 312.238 44.698C312.194 46.579 311.897 47.635 311.149 48.592C310.489 49.439 309.686 50 308.311 50.572C308.025 49.978 307.882 49.78 307.442 49.318C308.333 49.054 308.828 48.812 309.367 48.383C310.489 47.492 310.841 46.546 310.841 44.467C310.841 44.137 310.83 44.038 310.786 43.807ZM317.793 46.546V45.017C318.277 45.083 318.486 45.094 319.575 45.094H325.438C326.527 45.094 326.736 45.083 327.22 45.017V46.546C326.78 46.491 326.659 46.491 325.427 46.491H319.586C318.354 46.491 318.233 46.491 317.793 46.546ZM336.746 45.512H334.392C334.337 46.777 334.095 47.69 333.622 48.471C333.039 49.439 332.236 50.044 330.751 50.638C330.476 50.077 330.333 49.89 329.86 49.428C331.18 49.021 332.005 48.438 332.467 47.591C332.753 47.085 332.918 46.37 332.951 45.512H330.267C329.519 45.512 329.266 45.523 328.87 45.567V44.258C329.288 44.324 329.53 44.335 330.289 44.335H336.724C337.472 44.335 337.725 44.324 338.143 44.258V45.567C337.747 45.523 337.494 45.512 336.746 45.512ZM329.981 42.828V41.486C330.388 41.552 330.608 41.563 331.4 41.563H335.624C336.416 41.563 336.636 41.552 337.043 41.486V42.828C336.68 42.784 336.416 42.773 335.646 42.773H331.378C330.608 42.773 330.344 42.784 329.981 42.828ZM346.844 42.894L347.966 43.697C347.812 43.818 347.812 43.818 347.592 44.06C347.042 44.654 346.239 45.369 345.546 45.864V49.604C345.546 50.11 345.557 50.385 345.601 50.66L344.182 50.649C344.226 50.33 344.237 50.121 344.237 49.604V46.656C343.247 47.239 342.455 47.591 341.124 48.053C340.893 47.547 340.794 47.36 340.442 46.909C341.476 46.634 342.147 46.381 343.049 45.919C344.281 45.281 345.249 44.588 346.173 43.686C346.536 43.323 346.668 43.169 346.844 42.894ZM360.275 49.219L359.219 50.363C358.306 49.241 357.041 48.009 355.842 47.096C354.599 48.482 353.334 49.45 351.651 50.275C351.343 49.703 351.211 49.527 350.76 49.054C351.607 48.724 352.135 48.427 352.96 47.844C354.621 46.678 355.941 45.083 356.656 43.367L356.777 43.081C356.601 43.092 356.601 43.092 353.136 43.147C352.608 43.158 352.311 43.18 351.937 43.235L351.893 41.827C352.201 41.882 352.41 41.893 352.861 41.893C352.905 41.893 352.993 41.893 353.125 41.893L356.997 41.838C357.613 41.827 357.701 41.816 357.976 41.717L358.702 42.465C358.559 42.63 358.471 42.784 358.35 43.059C357.844 44.236 357.305 45.193 356.634 46.095C357.327 46.557 357.921 47.019 358.669 47.69C358.944 47.932 358.944 47.932 360.275 49.219ZM365.434 50.495H363.927C363.982 50.143 363.993 49.846 363.993 49.263V42.212C363.993 41.673 363.971 41.387 363.927 41.09H365.434C365.39 41.42 365.39 41.563 365.39 42.245V44.291C366.897 44.819 368.624 45.622 370.384 46.612L369.614 47.91C368.701 47.283 367.557 46.656 365.72 45.809C365.467 45.688 365.434 45.677 365.346 45.622C365.379 45.93 365.39 46.062 365.39 46.37V49.274C365.39 49.846 365.401 50.132 365.434 50.495ZM378.37 42.949C378.161 44.676 377.776 46.194 377.226 47.437C376.599 48.856 375.895 49.505 374.993 49.505C373.739 49.505 372.837 48.229 372.837 46.458C372.837 45.248 373.266 44.115 374.047 43.257C374.971 42.245 376.269 41.717 377.831 41.717C380.471 41.717 382.187 43.323 382.187 45.798C382.187 47.701 381.197 49.219 379.514 49.901C378.986 50.121 378.557 50.231 377.787 50.363C377.6 49.78 377.468 49.538 377.116 49.076C378.128 48.944 378.788 48.768 379.305 48.471C380.262 47.943 380.834 46.898 380.834 45.721C380.834 44.665 380.361 43.807 379.481 43.279C379.14 43.081 378.854 42.993 378.37 42.949ZM377.028 42.96C376.456 43.026 376.06 43.18 375.609 43.499C374.685 44.159 374.113 45.292 374.113 46.469C374.113 47.371 374.498 48.086 374.982 48.086C375.345 48.086 375.719 47.624 376.115 46.678C376.533 45.688 376.896 44.203 377.028 42.96ZM387.797 41.629V41.387C387.797 41.145 387.775 40.936 387.731 40.694H389.095C389.051 40.925 389.029 41.123 389.029 41.387V41.629H391.526C392.131 41.629 392.549 41.607 392.89 41.563V42.74C392.538 42.707 392.241 42.696 391.713 42.696H391.207C390.932 43.323 390.756 43.708 390.569 44.027H392.219C392.868 44.027 393.176 44.016 393.484 43.972V45.149C393.165 45.105 392.857 45.094 392.219 45.094H384.827C384.189 45.094 383.892 45.105 383.562 45.149V43.972C383.903 44.016 384.222 44.027 384.871 44.027H386.268C386.158 43.631 385.916 43.07 385.696 42.696H385.234C384.717 42.696 384.442 42.707 384.101 42.74V41.563C384.431 41.607 384.827 41.629 385.388 41.629H387.797ZM387.533 44.027H389.337C389.59 43.598 389.799 43.136 389.942 42.696H386.983C387.203 43.136 387.379 43.565 387.533 44.027ZM385.916 45.732H391.086C391.537 45.732 391.79 45.721 392.142 45.688C392.109 46.04 392.098 46.304 392.098 46.678V49.824C392.098 50.275 392.12 50.583 392.164 50.902H390.899V50.429H386.114V50.902H384.849C384.893 50.561 384.915 50.242 384.915 49.824V46.678C384.915 46.337 384.904 46.04 384.86 45.688C385.223 45.721 385.465 45.732 385.916 45.732ZM386.114 46.755V47.536H390.899V46.755H386.114ZM386.114 48.504V49.384H390.899V48.504H386.114ZM398.863 46.106H398.28C397.95 46.106 397.664 46.117 397.433 46.139C397.455 45.886 397.466 45.622 397.466 45.226V42.652C397.466 42.19 397.466 42.124 397.433 41.761C397.708 41.794 397.829 41.794 398.302 41.794H398.654C398.819 41.387 398.918 41.09 399.006 40.672L400.227 40.815C400.018 41.321 399.875 41.651 399.809 41.794H400.733C401.184 41.794 401.294 41.794 401.58 41.761C401.547 42.025 401.547 42.146 401.547 42.652V45.226C401.547 45.699 401.558 45.93 401.58 46.139C401.338 46.117 401.074 46.106 400.755 46.106H400.073V46.832H403.043C403.692 46.832 404.077 46.81 404.363 46.766V47.954C404.033 47.91 403.637 47.888 403.032 47.888H400.898C401.547 48.394 401.932 48.636 402.482 48.889C403.219 49.219 403.725 49.395 404.671 49.604C404.385 49.989 404.209 50.275 403.989 50.737C402.944 50.407 402.548 50.242 401.899 49.868C401.129 49.417 400.513 48.933 400.04 48.394C400.04 48.526 400.04 48.526 400.051 48.691C400.051 48.724 400.062 49.087 400.062 49.12V49.758C400.062 50.308 400.073 50.528 400.139 50.891H398.797C398.852 50.539 398.874 50.242 398.874 49.758V49.131C398.874 48.922 398.885 48.713 398.907 48.405C398.291 49.054 397.884 49.395 397.224 49.78C396.619 50.132 395.893 50.462 395.112 50.726C394.892 50.275 394.727 50.022 394.397 49.648C395.904 49.263 397.147 48.658 397.994 47.888H395.992C395.42 47.888 394.991 47.91 394.683 47.954V46.766C394.991 46.81 395.409 46.832 395.992 46.832H398.863V46.106ZM398.555 42.751V43.466H400.458V42.751H398.555ZM398.555 44.379V45.149H400.458V44.379H398.555ZM394.727 42.069L395.53 41.31C396.135 41.794 396.575 42.212 397.202 42.905L396.399 43.752C395.838 43.037 395.343 42.542 394.727 42.069ZM397.037 43.939L397.312 44.951C396.674 45.38 396.267 45.611 395.343 46.062C395.134 46.161 395.123 46.172 394.892 46.293L394.463 45.182C395.167 45.006 396.003 44.588 397.037 43.939ZM403.483 41.299L404.374 42.08C403.571 42.927 403.054 43.4 402.493 43.84L401.745 43.026C402.57 42.377 402.922 42.025 403.483 41.299ZM401.657 44.841L402.273 43.983C403.373 44.544 403.956 44.874 404.616 45.314L403.978 46.26C403.175 45.666 402.493 45.248 401.657 44.841ZM406.222 43.345L406.244 42.091C406.695 42.19 407.399 42.234 408.796 42.234C409.093 41.574 409.192 41.244 409.236 40.87L410.677 41.024C410.611 41.134 410.611 41.134 410.237 42.014C410.182 42.135 410.16 42.168 410.138 42.212C410.226 42.201 410.226 42.201 410.831 42.168C412.107 42.091 413.108 41.97 413.713 41.794L413.79 43.048C413.482 43.07 413.482 43.07 412.921 43.136C412.118 43.235 410.721 43.323 409.61 43.356C409.291 43.983 408.983 44.423 408.598 44.819L408.609 44.841C408.686 44.786 408.686 44.786 408.829 44.676C409.236 44.368 409.819 44.181 410.38 44.181C411.238 44.181 411.777 44.588 411.953 45.347C412.8 45.039 413.361 44.841 413.636 44.753C414.23 44.544 414.274 44.533 414.45 44.423L414.967 45.688C414.659 45.732 414.329 45.82 413.746 45.985C413.592 46.029 413.042 46.216 412.096 46.546V46.667C412.107 46.953 412.107 46.953 412.107 47.107C412.107 47.217 412.107 47.404 412.107 47.547C412.096 47.734 412.096 47.833 412.096 47.91C412.096 48.152 412.107 48.306 412.129 48.493L410.853 48.526C410.897 48.328 410.919 47.767 410.919 47.25C410.919 47.096 410.919 47.096 410.919 46.986C410.38 47.239 410.094 47.393 409.863 47.558C409.478 47.844 409.291 48.141 409.291 48.46C409.291 49.032 409.819 49.263 411.15 49.263C412.47 49.263 413.603 49.098 414.384 48.801L414.494 50.22C414.307 50.22 414.252 50.231 413.988 50.264C413.196 50.385 412.14 50.462 411.172 50.462C410.006 50.462 409.28 50.33 408.719 50C408.213 49.714 407.916 49.186 407.916 48.581C407.916 48.13 408.048 47.778 408.4 47.36C408.895 46.744 409.522 46.326 410.765 45.809C410.71 45.402 410.49 45.215 410.094 45.215C409.456 45.215 408.686 45.6 407.839 46.348C407.377 46.733 407.124 47.008 406.882 47.349L405.881 46.359C406.167 46.139 406.486 45.831 406.871 45.38C407.3 44.874 407.971 43.917 408.191 43.499C408.235 43.411 408.235 43.411 408.279 43.356C408.235 43.356 408.092 43.367 408.092 43.367C407.916 43.367 406.948 43.345 406.706 43.345C406.497 43.334 406.497 43.334 406.398 43.334C406.365 43.334 406.299 43.334 406.222 43.345ZM425.516 42.3V45.16C425.516 45.633 425.527 45.908 425.56 46.238C425.219 46.205 424.856 46.194 424.427 46.194H418.63C418.223 46.194 417.827 46.205 417.508 46.238C417.541 45.886 417.552 45.611 417.552 45.16V42.3C417.552 41.783 417.541 41.475 417.508 41.156C417.794 41.2 418.135 41.211 418.641 41.211H424.416C424.933 41.211 425.274 41.2 425.56 41.156C425.527 41.453 425.516 41.772 425.516 42.3ZM420.918 42.234H418.718V43.246H420.918V42.234ZM422.051 43.246H424.339V42.234H422.051V43.246ZM420.918 44.17H418.718V45.204H420.918V44.17ZM422.051 45.204H424.339V44.17H422.051V45.204ZM417.486 50.374L416.441 49.615C416.793 49.186 416.936 48.955 417.145 48.493C417.376 47.965 417.486 47.613 417.64 46.843L418.762 47.206C418.399 48.735 418.113 49.439 417.486 50.374ZM420.456 47.888V49.208C420.456 49.56 420.654 49.626 421.809 49.626C422.81 49.626 423.195 49.56 423.327 49.351C423.426 49.197 423.459 48.922 423.481 48.174C423.888 48.372 424.185 48.471 424.636 48.548C424.537 49.692 424.427 50.132 424.163 50.352C423.844 50.616 423.14 50.726 421.721 50.726C419.642 50.726 419.268 50.561 419.268 49.626V47.888C419.268 47.294 419.257 47.118 419.202 46.843H420.511C420.467 47.118 420.456 47.316 420.456 47.888ZM423.239 48.086L422.293 48.768C421.853 47.976 421.49 47.459 420.885 46.832L421.765 46.271C422.414 46.931 422.733 47.316 423.239 48.086ZM426.704 49.615L425.648 50.22C425.153 48.9 424.823 48.251 424.108 47.228L425.043 46.733C425.736 47.701 426.231 48.548 426.704 49.615ZM428.189 41.915H429.696C429.641 42.322 429.608 42.861 429.608 43.587C429.608 44.544 429.696 45.864 429.817 46.535C430.004 47.679 430.356 48.383 430.708 48.383C430.873 48.383 431.027 48.218 431.159 47.91C431.423 47.316 431.621 46.656 431.742 45.919C432.127 46.359 432.303 46.524 432.842 46.92C432.27 49.065 431.632 49.956 430.697 49.956C429.96 49.956 429.366 49.417 428.926 48.361C428.475 47.261 428.277 45.666 428.233 42.619C428.222 42.234 428.222 42.157 428.189 41.915ZM433.744 42.96L434.899 42.41C436.285 44.071 437.055 45.908 437.374 48.328L436.01 48.845C435.944 47.811 435.691 46.667 435.306 45.666C434.932 44.665 434.404 43.774 433.744 42.96ZM439.871 46.315L439.596 44.995C439.904 44.973 439.904 44.973 440.74 44.786C442.236 44.456 443.226 44.324 444.139 44.324C445.393 44.324 446.24 44.687 446.735 45.446C447.01 45.864 447.142 46.326 447.142 46.865C447.142 48.328 446.108 49.516 444.359 50.066C443.677 50.275 443.402 50.319 441.972 50.484C441.862 49.934 441.774 49.725 441.499 49.23C441.576 49.23 441.62 49.23 441.664 49.23C442.071 49.23 442.687 49.164 443.226 49.065C444.084 48.9 444.568 48.702 445.063 48.317C445.591 47.921 445.844 47.437 445.844 46.832C445.844 45.974 445.206 45.512 444.04 45.512C443.281 45.512 442.434 45.633 441.147 45.941C440.443 46.106 440.245 46.161 439.871 46.315ZM450.541 43.664L450.486 42.498C450.805 42.531 451.058 42.542 451.542 42.542C452.378 42.542 452.972 42.509 453.808 42.421C453.775 42.333 453.775 42.333 453.687 42.135C453.412 41.497 453.258 41.156 453.247 41.134L454.622 40.947C454.666 41.222 454.776 41.552 455.073 42.278C456.008 42.157 457.284 41.871 458.043 41.618L458.153 42.784C458.043 42.806 458.043 42.806 457.779 42.861C457.042 43.037 455.821 43.279 455.48 43.323C455.656 43.73 455.722 43.873 455.909 44.225C456.855 44.027 457.361 43.917 457.427 43.906C458.054 43.752 458.186 43.708 458.472 43.587L458.582 44.786C458.373 44.819 458.142 44.863 457.889 44.929C457.438 45.039 457.075 45.116 456.811 45.171C456.536 45.226 456.536 45.226 456.404 45.259C456.976 46.205 457.152 46.436 457.878 47.272L456.91 47.965C456.118 47.635 455.458 47.514 454.38 47.514C453.544 47.514 452.906 47.624 452.532 47.822C452.224 47.998 452.059 48.229 452.059 48.493C452.059 48.757 452.246 49.01 452.532 49.131C452.884 49.285 453.467 49.373 454.105 49.373C455.249 49.373 456.8 49.043 457.493 48.658L457.691 50.011C457.482 50.044 457.482 50.044 456.976 50.176C456.041 50.429 455.128 50.55 454.16 50.55C452.895 50.55 452.092 50.385 451.476 50.011C450.948 49.681 450.629 49.12 450.629 48.504C450.629 47.91 450.959 47.36 451.553 46.975C452.125 46.612 453.005 46.425 454.116 46.425C454.787 46.425 455.425 46.502 456.019 46.656C455.843 46.491 455.634 46.183 455.172 45.424C454.006 45.6 453.302 45.644 450.915 45.721C450.728 45.732 450.651 45.732 450.464 45.754L450.42 44.555C450.739 44.599 450.805 44.599 451.553 44.599C452.708 44.599 453.621 44.533 454.666 44.39C454.6 44.258 454.556 44.192 454.468 43.983C454.358 43.752 454.325 43.686 454.237 43.488C453.357 43.587 452.565 43.631 451.289 43.642C450.827 43.642 450.772 43.653 450.541 43.664ZM462.52 40.936L463.917 41.013C463.785 41.387 463.73 41.673 463.521 43.136C463.444 43.598 463.4 43.972 463.378 44.236H463.411C463.433 44.17 463.433 44.17 463.477 43.994C463.587 43.609 463.873 43.07 464.17 42.685C464.775 41.937 465.457 41.563 466.26 41.563C467.008 41.563 467.668 41.915 468.141 42.553C468.691 43.29 468.933 44.181 468.933 45.479C468.933 47.602 467.943 49.186 466.095 50C465.534 50.253 464.764 50.473 463.939 50.616C463.719 49.989 463.598 49.747 463.29 49.318C464.39 49.197 465.028 49.032 465.699 48.691C466.975 48.042 467.558 46.997 467.558 45.325C467.558 43.741 467.03 42.861 466.084 42.861C465.666 42.861 465.281 43.048 464.896 43.444C464.038 44.335 463.51 45.688 463.51 46.997C463.51 47.052 463.51 47.129 463.51 47.228L462.19 47.25C462.201 47.184 462.201 47.129 462.201 47.107C462.201 47.063 462.201 46.997 462.201 46.898C462.19 46.579 462.168 45.765 462.168 45.545C462.168 44.654 462.234 43.433 462.322 42.674L462.487 41.31C462.509 41.123 462.52 41.079 462.52 40.936ZM475.863 46.106H475.28C474.95 46.106 474.664 46.117 474.433 46.139C474.455 45.886 474.466 45.622 474.466 45.226V42.652C474.466 42.19 474.466 42.124 474.433 41.761C474.708 41.794 474.829 41.794 475.302 41.794H475.654C475.819 41.387 475.918 41.09 476.006 40.672L477.227 40.815C477.018 41.321 476.875 41.651 476.809 41.794H477.733C478.184 41.794 478.294 41.794 478.58 41.761C478.547 42.025 478.547 42.146 478.547 42.652V45.226C478.547 45.699 478.558 45.93 478.58 46.139C478.338 46.117 478.074 46.106 477.755 46.106H477.073V46.832H480.043C480.692 46.832 481.077 46.81 481.363 46.766V47.954C481.033 47.91 480.637 47.888 480.032 47.888H477.898C478.547 48.394 478.932 48.636 479.482 48.889C480.219 49.219 480.725 49.395 481.671 49.604C481.385 49.989 481.209 50.275 480.989 50.737C479.944 50.407 479.548 50.242 478.899 49.868C478.129 49.417 477.513 48.933 477.04 48.394C477.04 48.526 477.04 48.526 477.051 48.691C477.051 48.724 477.062 49.087 477.062 49.12V49.758C477.062 50.308 477.073 50.528 477.139 50.891H475.797C475.852 50.539 475.874 50.242 475.874 49.758V49.131C475.874 48.922 475.885 48.713 475.907 48.405C475.291 49.054 474.884 49.395 474.224 49.78C473.619 50.132 472.893 50.462 472.112 50.726C471.892 50.275 471.727 50.022 471.397 49.648C472.904 49.263 474.147 48.658 474.994 47.888H472.992C472.42 47.888 471.991 47.91 471.683 47.954V46.766C471.991 46.81 472.409 46.832 472.992 46.832H475.863V46.106ZM475.555 42.751V43.466H477.458V42.751H475.555ZM475.555 44.379V45.149H477.458V44.379H475.555ZM471.727 42.069L472.53 41.31C473.135 41.794 473.575 42.212 474.202 42.905L473.399 43.752C472.838 43.037 472.343 42.542 471.727 42.069ZM474.037 43.939L474.312 44.951C473.674 45.38 473.267 45.611 472.343 46.062C472.134 46.161 472.123 46.172 471.892 46.293L471.463 45.182C472.167 45.006 473.003 44.588 474.037 43.939ZM480.483 41.299L481.374 42.08C480.571 42.927 480.054 43.4 479.493 43.84L478.745 43.026C479.57 42.377 479.922 42.025 480.483 41.299ZM478.657 44.841L479.273 43.983C480.373 44.544 480.956 44.874 481.616 45.314L480.978 46.26C480.175 45.666 479.493 45.248 478.657 44.841ZM484.256 41.211L485.796 41.233C485.73 41.552 485.708 41.871 485.664 42.718C485.62 43.741 485.554 45.974 485.554 46.755C485.554 47.8 485.62 48.196 485.84 48.526C486.093 48.889 486.621 49.098 487.314 49.098C488.502 49.098 489.459 48.427 489.976 47.217C490.218 46.645 490.361 46.128 490.482 45.369C491.076 45.853 491.274 45.974 491.813 46.216C491.373 47.701 491.043 48.416 490.504 49.021C489.679 49.956 488.59 50.418 487.204 50.418C486.445 50.418 485.741 50.242 485.279 49.934C484.52 49.428 484.201 48.581 484.201 47.107C484.201 46.535 484.223 45.435 484.289 42.674C484.3 42.344 484.3 42.113 484.3 41.959C484.3 41.651 484.289 41.497 484.256 41.211ZM494.156 46.469L494.277 45.204C494.783 45.402 495.091 45.468 496.213 45.622C496.257 45.226 496.356 44.489 496.411 44.082C495.762 43.994 495.586 43.972 494.838 43.807C494.684 43.774 494.629 43.763 494.464 43.73L494.574 42.52C495.036 42.696 495.817 42.85 496.565 42.916C496.719 41.992 496.785 41.42 496.785 41.09C496.785 41.057 496.785 41.035 496.774 40.98L498.237 41.112C498.116 41.453 498.083 41.618 497.885 42.971C499.128 42.949 499.766 42.894 500.393 42.74L500.349 44.027C500.206 44.038 500.151 44.049 499.909 44.071C499.117 44.137 498.765 44.159 498.369 44.159C498.259 44.159 498.16 44.159 497.687 44.148C497.577 44.951 497.544 45.171 497.478 45.699C497.808 45.71 497.896 45.71 498.017 45.71C498.798 45.71 499.59 45.633 500.118 45.49L500.085 46.755C499.975 46.755 499.942 46.755 499.755 46.788C499.271 46.843 498.622 46.887 498.105 46.887C497.929 46.887 497.83 46.887 497.401 46.865C497.368 47.162 497.346 47.448 497.346 47.646C497.346 48.185 497.467 48.526 497.753 48.779C498.072 49.054 498.512 49.186 499.117 49.186C500.514 49.186 501.317 48.57 501.317 47.492C501.317 46.854 500.987 46.238 500.327 45.633C500.943 45.589 501.174 45.545 501.691 45.358C501.966 45.677 502.087 45.842 502.208 46.051C502.494 46.535 502.681 47.162 502.681 47.668C502.681 48.449 502.296 49.208 501.625 49.725C500.998 50.209 500.173 50.451 499.139 50.451C497.137 50.451 496.048 49.494 496.048 47.723C496.048 47.437 496.059 47.162 496.103 46.788C495.443 46.7 495.014 46.634 494.574 46.535C494.343 46.48 494.31 46.48 494.156 46.469ZM506.773 42.311L507.202 41.013C508.423 41.42 510.051 41.651 511.789 41.651C511.844 41.651 511.965 41.651 512.097 41.651L511.91 43.004C509.908 42.916 508.39 42.718 506.773 42.311ZM505.805 45.985L505.486 44.522C505.772 44.511 505.772 44.511 506.762 44.335C508.324 44.06 509.281 43.961 510.216 43.961C511.107 43.961 511.789 44.104 512.295 44.412C512.977 44.819 513.362 45.556 513.362 46.425C513.362 47.679 512.603 48.823 511.272 49.582C510.37 50.099 509.6 50.33 507.807 50.616C507.697 50.033 507.576 49.758 507.235 49.241C508.511 49.186 509.699 48.878 510.546 48.405C511.415 47.921 511.888 47.228 511.888 46.469C511.888 45.644 511.305 45.226 510.161 45.226C508.918 45.226 506.718 45.611 505.805 45.985ZM517.322 47.14C518.356 47.14 519.181 47.976 519.181 48.999C519.181 50.033 518.345 50.869 517.322 50.869C516.299 50.869 515.463 50.033 515.463 48.999C515.463 47.976 516.299 47.14 517.322 47.14ZM517.322 47.998C516.772 47.998 516.321 48.449 516.321 48.999C516.321 49.56 516.772 50.011 517.322 50.011C517.872 50.011 518.323 49.56 518.323 48.999C518.323 48.449 517.872 47.998 517.322 47.998ZM534.933 42.267L535.637 42.96C535.527 43.125 535.483 43.224 535.362 43.62C534.856 45.292 534.075 46.777 533.107 47.866C532.095 49.021 530.885 49.879 529.191 50.66C528.883 50.11 528.74 49.923 528.256 49.505C529.356 49.054 529.972 48.724 530.665 48.207C532.238 47.041 533.272 45.534 533.877 43.565L530.566 43.62C529.895 44.687 529.037 45.633 527.992 46.436C527.662 45.985 527.497 45.842 526.925 45.49C528.179 44.632 528.971 43.752 529.774 42.3C530.115 41.673 530.291 41.244 530.335 40.848L531.842 41.145C531.776 41.244 531.776 41.244 531.655 41.486C531.622 41.541 531.622 41.541 531.512 41.794C531.479 41.86 531.479 41.86 531.369 42.08C531.303 42.234 531.303 42.234 531.193 42.432C531.336 42.421 531.512 42.41 531.721 42.41L534.13 42.377C534.559 42.377 534.68 42.355 534.933 42.267ZM539.212 41.343L540.774 41.354C540.73 41.651 540.719 41.926 540.708 42.465L540.653 48.746C541.797 48.526 542.831 48.108 543.656 47.536C544.668 46.843 545.35 46.084 545.9 45.017C546.329 45.589 546.472 45.743 546.945 46.139C546.186 47.305 545.482 48.042 544.492 48.702C543.392 49.439 542.27 49.868 540.488 50.209C540.191 50.264 540.059 50.308 539.828 50.396L539.124 49.549C539.201 49.252 539.223 49.054 539.223 48.416L539.267 42.476C539.267 41.706 539.267 41.706 539.212 41.343ZM549.915 42.476L550.63 41.354C551.763 41.794 552.632 42.212 553.556 42.773L552.852 43.983C551.851 43.312 550.872 42.806 549.915 42.476ZM549.046 45.149L549.783 44.016C550.916 44.467 551.763 44.907 552.709 45.512L552.027 46.755C551.147 46.106 550.168 45.578 549.046 45.149ZM549.673 50.451L549.288 48.944C550.124 48.944 551.323 48.669 552.467 48.229C553.831 47.701 554.766 46.986 555.646 45.82C556.24 45.017 556.581 44.357 556.922 43.378C557.373 43.851 557.538 43.994 558.066 44.357C557.56 45.578 557.098 46.348 556.416 47.14C555.019 48.757 553.149 49.736 550.443 50.264C550.047 50.341 549.893 50.385 549.673 50.451ZM555.668 41.838L556.493 41.398C556.944 41.871 557.153 42.157 557.527 42.839L556.702 43.312C556.361 42.685 556.075 42.278 555.668 41.838ZM558.693 42.146L557.89 42.619C557.571 42.036 557.285 41.64 556.889 41.2L557.67 40.771C558.11 41.222 558.374 41.574 558.693 42.146ZM560.772 44.016L561.938 43.675C562.4 44.522 562.62 45.05 563.016 46.282L561.773 46.678C561.487 45.567 561.267 44.984 560.772 44.016ZM563.126 43.554L564.281 43.224C564.864 44.313 565.073 44.797 565.348 45.754L564.127 46.139C563.918 45.303 563.588 44.456 563.126 43.554ZM566.91 43.444L568.252 43.752C568.186 43.917 568.164 43.972 568.098 44.313C567.779 45.809 567.284 47.019 566.58 47.976C565.766 49.087 564.853 49.802 563.225 50.627C562.939 50.143 562.807 49.978 562.345 49.538C563.115 49.241 563.566 48.999 564.215 48.526C565.502 47.591 566.239 46.469 566.712 44.709C566.855 44.17 566.91 43.785 566.91 43.444ZM574.434 50.495H572.927C572.982 50.143 572.993 49.846 572.993 49.263V42.212C572.993 41.673 572.971 41.387 572.927 41.09H574.434C574.39 41.42 574.39 41.563 574.39 42.245V44.291C575.897 44.819 577.624 45.622 579.384 46.612L578.614 47.91C577.701 47.283 576.557 46.656 574.72 45.809C574.467 45.688 574.434 45.677 574.346 45.622C574.379 45.93 574.39 46.062 574.39 46.37V49.274C574.39 49.846 574.401 50.132 574.434 50.495ZM589.657 42.949L590.284 43.499C590.196 43.697 590.174 43.851 590.163 44.236C590.13 45.479 590.009 47.173 589.899 47.899C589.613 49.802 589.228 50.253 587.908 50.253C587.49 50.253 587.116 50.22 586.544 50.132C586.522 49.439 586.489 49.23 586.291 48.724C586.94 48.9 587.38 48.977 587.743 48.977C588.216 48.977 588.381 48.735 588.557 47.778C588.689 47.019 588.799 45.523 588.799 44.258L586.236 44.269C586.082 45.644 585.851 46.469 585.356 47.415C584.751 48.581 583.772 49.582 582.386 50.462C582.012 49.879 581.858 49.703 581.396 49.296C582.771 48.57 583.673 47.701 584.256 46.524C584.553 45.919 584.718 45.38 584.817 44.61C584.839 44.456 584.861 44.346 584.872 44.269L583.046 44.28C582.375 44.28 582.221 44.291 581.858 44.335L581.847 42.982C582.221 43.048 582.518 43.07 583.068 43.07L584.993 43.059C585.026 42.641 585.048 42.003 585.048 41.684V41.409C585.048 41.266 585.048 41.178 585.015 40.98L586.489 41.013C586.467 41.156 586.456 41.2 586.445 41.354C586.445 41.42 586.434 41.486 586.434 41.563C586.412 41.794 586.412 41.794 586.39 42.366C586.379 42.608 586.379 42.707 586.346 43.059L588.788 43.048C589.283 43.048 589.382 43.037 589.657 42.949ZM592.352 46.546V45.017C592.836 45.083 593.045 45.094 594.134 45.094H599.997C601.086 45.094 601.295 45.083 601.779 45.017V46.546C601.339 46.491 601.218 46.491 599.986 46.491H594.145C592.913 46.491 592.792 46.491 592.352 46.546ZM609.105 42.234L609.93 41.794C610.381 42.267 610.623 42.608 610.986 43.279L610.161 43.741C609.831 43.136 609.501 42.663 609.105 42.234ZM612.163 42.586L611.349 43.059C611.03 42.487 610.722 42.036 610.315 41.596L611.107 41.167C611.547 41.618 611.833 42.003 612.163 42.586ZM606.806 50.495H605.299C605.354 50.143 605.365 49.846 605.365 49.263V42.212C605.365 41.673 605.343 41.387 605.299 41.09H606.806C606.762 41.42 606.762 41.563 606.762 42.245V44.291C608.269 44.819 609.996 45.622 611.756 46.612L610.986 47.91C610.073 47.283 608.929 46.656 607.092 45.809C606.839 45.688 606.806 45.677 606.718 45.622C606.751 45.93 606.762 46.062 606.762 46.37V49.274C606.762 49.846 606.773 50.132 606.806 50.495ZM618.895 42.509H615.606C615.133 42.509 614.539 42.531 614.099 42.575V41.277C614.539 41.321 615.012 41.343 615.562 41.343H622.558C623.207 41.343 623.669 41.321 624.021 41.277V42.575C623.581 42.531 623.064 42.509 622.591 42.509H620.369C620.149 42.938 620.017 43.147 619.588 43.73V49.505C619.588 50.022 619.61 50.473 619.665 50.891H618.246C618.29 50.473 618.323 49.967 618.323 49.505V46.205C618.323 45.809 618.323 45.666 618.334 45.182C617.949 45.688 617.421 46.216 616.728 46.788C616.189 47.228 615.617 47.624 614.638 48.24C614.462 47.844 614.264 47.558 613.868 47.118C615.287 46.37 616.31 45.611 617.333 44.555C618.059 43.818 618.422 43.334 618.895 42.509ZM619.676 44.951L620.479 44.06C621.029 44.698 621.447 45.105 622.085 45.622C622.91 46.282 623.537 46.678 624.34 47.03C624.021 47.448 623.823 47.745 623.581 48.229C621.92 47.272 620.765 46.293 619.676 44.951ZM626.474 46.458H628.443C628.619 46.194 628.696 46.062 628.85 45.765H627.178C626.606 45.765 626.243 45.776 625.902 45.809C625.935 45.49 625.946 45.237 625.946 44.742V43.983C625.946 43.477 625.935 43.191 625.902 42.861C626.254 42.905 626.606 42.916 627.123 42.916H628.322V42.223H626.496C625.979 42.223 625.572 42.245 625.231 42.278V41.112C625.561 41.156 625.968 41.178 626.584 41.178H633.58C634.218 41.178 634.647 41.156 634.944 41.112V42.278C634.592 42.245 634.196 42.223 633.668 42.223H631.699V42.916H632.975C633.536 42.916 633.888 42.905 634.207 42.861C634.174 43.169 634.163 43.444 634.163 43.983V44.731C634.163 45.281 634.174 45.534 634.196 45.809C633.921 45.776 633.58 45.765 632.953 45.765H630.17C629.939 46.172 629.906 46.238 629.774 46.458H633.657C634.295 46.458 634.625 46.447 634.933 46.392V47.536C634.57 47.503 634.196 47.481 633.657 47.481H632.667C632.381 48.053 632.084 48.482 631.666 48.911C633.063 49.34 633.459 49.483 634.68 49.978L633.91 50.99C633.635 50.869 633.415 50.77 633.272 50.704C632.337 50.275 632.337 50.275 630.654 49.67C629.367 50.396 627.882 50.759 625.693 50.869C625.561 50.418 625.484 50.231 625.198 49.747C625.308 49.747 625.385 49.747 625.44 49.747C626.958 49.747 628.157 49.571 629.136 49.208C627.86 48.867 627.673 48.823 626.562 48.559C627.057 48.13 627.266 47.932 627.651 47.481H626.474C625.935 47.481 625.572 47.503 625.209 47.536V46.392C625.517 46.436 625.869 46.458 626.474 46.458ZM631.358 47.481H629.026C628.861 47.679 628.773 47.778 628.498 48.053C628.883 48.163 628.883 48.163 629.741 48.361C629.862 48.383 630.016 48.427 630.401 48.537C630.797 48.251 631.105 47.921 631.358 47.481ZM629.411 42.223V42.916H630.61V42.223H629.411ZM628.322 43.807H627.112V44.852H628.322V43.807ZM629.411 43.807V44.852H630.61V43.807H629.411ZM631.699 43.807V44.852H632.986V43.807H631.699ZM637.881 47.14C638.915 47.14 639.74 47.976 639.74 48.999C639.74 50.033 638.904 50.869 637.881 50.869C636.858 50.869 636.022 50.033 636.022 48.999C636.022 47.976 636.858 47.14 637.881 47.14ZM637.881 47.998C637.331 47.998 636.88 48.449 636.88 48.999C636.88 49.56 637.331 50.011 637.881 50.011C638.431 50.011 638.882 49.56 638.882 48.999C638.882 48.449 638.431 47.998 637.881 47.998Z" fill="black"/>
<rect x="1263" y="15" width="151" height="38" rx="12" fill="white"/>
<path d="M1314.21 31.608V32.728C1313.81 32.686 1313.37 32.672 1312.83 32.672H1309.07C1308.52 32.672 1308.17 32.686 1307.78 32.728V31.594C1306.95 32.14 1306.2 32.546 1305.13 33.036C1304.88 32.42 1304.67 32.056 1304.31 31.608C1305.78 31.02 1306.91 30.376 1307.92 29.536C1308.98 28.654 1309.67 27.912 1310.03 27.226H1311.77C1312.39 28.122 1313.18 28.934 1314.19 29.676C1315.33 30.516 1316.35 31.062 1317.72 31.538C1317.31 32.07 1317.2 32.294 1316.89 33.092C1315.77 32.574 1315.2 32.252 1314.21 31.608ZM1309 31.328H1312.93C1313.28 31.328 1313.55 31.328 1313.76 31.314C1312.53 30.446 1311.83 29.774 1310.94 28.626C1310.06 29.76 1309.35 30.446 1308.19 31.3C1308.48 31.328 1308.63 31.328 1309 31.328ZM1315.49 33.96L1316.39 34.954C1316.25 35.094 1315.94 35.444 1315.77 35.654L1313.07 39.084C1312.72 39.546 1312.48 39.882 1312.19 40.33L1310.58 39.434C1310.94 39.098 1311.28 38.748 1311.66 38.272L1313.95 35.444H1307.65C1307.08 35.444 1306.51 35.472 1305.92 35.528V33.946C1306.49 34.002 1307.02 34.03 1307.67 34.03H1314.05C1314.85 34.03 1315.23 34.016 1315.49 33.96ZM1327.03 31.552L1327.02 32.756C1327.02 32.812 1327.03 32.924 1327.03 33.092C1327.34 33.736 1327.48 34.31 1327.48 35.066C1327.48 36.592 1326.75 37.908 1325.39 38.846C1324.8 39.252 1324.16 39.546 1322.86 39.994C1322.47 39.126 1322.33 38.916 1321.86 38.412C1323.01 38.188 1323.59 37.992 1324.24 37.6C1325.2 37.054 1325.76 36.34 1325.87 35.556C1325.46 36.2 1324.73 36.55 1323.81 36.55C1323.17 36.55 1322.66 36.396 1322.19 36.046C1321.53 35.57 1321.22 34.954 1321.22 34.156C1321.22 32.672 1322.38 31.608 1324.01 31.608C1324.61 31.608 1325.14 31.762 1325.46 32.028C1325.45 31.958 1325.45 31.958 1325.45 31.86C1325.43 31.832 1325.43 31.048 1325.43 30.67C1323.43 30.726 1322.12 30.768 1321.5 30.81C1319.39 30.964 1319.39 30.964 1319.01 31.02L1318.95 29.354C1319.26 29.382 1319.39 29.382 1319.64 29.382C1319.99 29.382 1320.21 29.382 1322.02 29.312C1322.93 29.284 1323.07 29.284 1324.22 29.256C1324.68 29.242 1324.68 29.242 1325.41 29.214C1325.39 27.884 1325.39 27.884 1325.32 27.52L1327.09 27.506C1327.03 27.94 1327.03 27.968 1327.02 29.172C1329.45 29.158 1330.54 29.13 1331.06 29.074L1331.08 30.684C1330.56 30.642 1329.89 30.614 1328.72 30.614C1328.39 30.614 1328.14 30.614 1327.03 30.642V31.552ZM1325.42 33.862C1325.42 33.274 1324.93 32.896 1324.16 32.896C1323.45 32.896 1322.86 33.4 1322.86 34.016C1322.86 34.66 1323.35 35.122 1324.05 35.122C1324.85 35.122 1325.42 34.59 1325.42 33.862ZM1340.26 27.338L1341.87 28.57C1341.53 28.822 1341.48 28.878 1339.74 30.488C1339.11 31.034 1337.87 32.014 1336.82 32.798C1336.38 33.12 1336.28 33.246 1336.28 33.4C1336.28 33.61 1336.31 33.624 1337.54 34.562C1339.64 36.144 1340.27 36.676 1341.95 38.202C1342.11 38.356 1342.18 38.412 1342.36 38.552L1340.92 40.022C1340.12 38.916 1338.24 37.222 1335.49 35.122C1334.56 34.394 1334.31 34.03 1334.31 33.386C1334.31 32.966 1334.46 32.574 1334.77 32.238C1334.95 32.056 1334.97 32.028 1336 31.244C1337.92 29.802 1339.78 28.094 1340.26 27.338ZM1340.51 31.188L1341.49 30.698C1342.09 31.356 1342.49 31.888 1342.96 32.756L1341.98 33.274C1341.51 32.42 1341.11 31.86 1340.51 31.188ZM1344.63 31.846L1343.66 32.392C1343.24 31.622 1342.78 30.964 1342.23 30.362L1343.17 29.872C1343.8 30.516 1344.19 31.048 1344.63 31.846ZM1357.83 29.004L1358.99 29.788C1358.88 29.9 1358.87 29.914 1358.74 30.082C1358.4 30.488 1357.93 30.992 1357.51 31.384C1358.19 31.776 1358.68 32 1359.64 32.378C1359.29 32.854 1359.13 33.148 1358.91 33.778C1357.44 33.12 1356.68 32.672 1355.52 31.748V32.574C1355.24 32.532 1355.06 32.518 1354.58 32.518H1351.49C1351.12 32.518 1350.86 32.532 1350.61 32.574V31.664C1349.43 32.616 1348.66 33.092 1347.12 33.834C1346.88 33.232 1346.67 32.868 1346.36 32.504C1347.37 32.112 1348.04 31.762 1349 31.118C1348.27 30.362 1347.88 30.026 1347.12 29.48L1348.16 28.556C1348.93 29.144 1349.53 29.662 1350.12 30.264C1350.77 29.69 1351 29.452 1351.45 28.85H1349.6C1349.32 28.85 1349.07 28.864 1348.74 28.906V27.492C1349.09 27.548 1349.32 27.562 1349.91 27.562H1352.54C1353.2 27.562 1353.45 27.548 1353.74 27.506C1353.9 28.08 1354.09 28.416 1354.68 29.088C1355.2 28.556 1355.6 28.024 1355.86 27.576L1357.02 28.346C1356.65 28.836 1356.05 29.494 1355.58 29.956C1355.93 30.264 1356.09 30.404 1356.44 30.656C1357.05 30.096 1357.52 29.522 1357.83 29.004ZM1351.57 31.272H1354.6C1354.67 31.272 1354.67 31.272 1354.95 31.272C1354.19 30.6 1353.71 30.04 1353.01 29.074C1352.4 29.97 1351.87 30.572 1351.08 31.272C1351.25 31.272 1351.29 31.272 1351.57 31.272ZM1348.09 38.44H1350.45C1350.33 38.076 1350.09 37.614 1349.88 37.306L1351.11 36.858H1349.61C1349.15 36.858 1348.86 36.872 1348.6 36.9C1348.65 36.522 1348.66 36.284 1348.66 35.878V34.114C1348.66 33.75 1348.65 33.484 1348.6 33.162C1348.97 33.204 1349.25 33.218 1349.71 33.218H1356.32C1356.81 33.218 1357.07 33.204 1357.41 33.162C1357.37 33.47 1357.35 33.694 1357.35 34.1V35.878C1357.35 36.354 1357.37 36.578 1357.41 36.9C1357.14 36.872 1356.86 36.858 1356.4 36.858H1355.04L1356.21 37.278C1355.98 37.698 1355.66 38.3 1355.56 38.44H1357.96C1358.61 38.44 1358.92 38.426 1359.33 38.37V39.882C1358.91 39.826 1358.54 39.812 1357.87 39.812H1348.18C1347.51 39.812 1347.16 39.826 1346.73 39.882V38.37C1347.13 38.426 1347.43 38.44 1348.09 38.44ZM1351.96 38.44H1354.05C1354.36 37.894 1354.64 37.292 1354.76 36.858H1351.26C1351.56 37.404 1351.75 37.866 1351.96 38.44ZM1350.1 34.464V35.598H1355.87V34.464H1350.1ZM1365.33 37.166L1364.38 36.858C1364.68 36.018 1364.82 35.458 1364.94 34.576L1366.01 34.926C1365.81 35.822 1365.64 36.396 1365.33 37.166ZM1366.13 33.918L1367.22 33.344C1367.88 34.268 1368.06 34.562 1368.44 35.43L1367.36 36.144C1366.99 35.234 1366.66 34.632 1366.13 33.918ZM1362.87 31.916H1362.52C1362.21 31.916 1362 31.93 1361.69 31.958V31.216C1361.43 31.454 1361.34 31.524 1361.05 31.762C1360.87 31.188 1360.73 30.894 1360.41 30.432C1361.55 29.634 1362.38 28.598 1362.83 27.408H1364.37C1364.84 28.402 1365.36 29.004 1366.41 29.76C1366.02 30.194 1365.82 30.488 1365.56 31.006L1365.45 30.908V31.958C1365.14 31.916 1365.01 31.916 1364.62 31.916H1364.21V32.854H1364.77C1365.19 32.854 1365.5 32.84 1365.77 32.798V31.636C1366.16 31.692 1366.55 31.72 1367.11 31.72H1370.65C1370.68 31.3 1370.7 31.16 1370.71 30.922H1367.94C1367.31 30.922 1367.01 30.936 1366.66 30.978V29.648C1367.01 29.704 1367.28 29.718 1367.94 29.718H1370.77C1370.79 29.368 1370.79 29.326 1370.81 28.948H1367.67C1367.08 28.948 1366.68 28.962 1366.34 29.004V27.66C1366.73 27.716 1367.11 27.73 1367.74 27.73H1371.03C1371.61 27.73 1371.98 27.716 1372.32 27.674C1372.28 27.996 1372.28 27.996 1372.24 29.032C1372.19 29.76 1372.12 30.992 1372.07 31.72H1372.15C1372.74 31.72 1373.12 31.692 1373.5 31.636V33.022C1373.12 32.98 1372.68 32.952 1372.17 32.952H1370.29C1370.42 33.722 1370.56 34.17 1370.96 35.024C1371.59 34.422 1371.94 34.002 1372.32 33.344L1373.47 34.156C1372.77 35.01 1372.18 35.654 1371.61 36.144C1372.22 37.012 1372.77 37.53 1373.76 38.16C1373.38 38.636 1373.19 38.958 1372.92 39.532C1372.03 38.762 1371.66 38.37 1371.21 37.726C1370.75 37.068 1370.53 36.606 1370.15 35.556C1370.18 35.836 1370.21 36.354 1370.23 37.11V38.902C1370.23 39.84 1369.83 40.176 1368.69 40.176C1368.39 40.176 1368.01 40.162 1367.46 40.12C1367.41 39.476 1367.34 39.182 1367.14 38.706C1367.59 38.804 1367.98 38.846 1368.23 38.846C1368.75 38.846 1368.85 38.79 1368.85 38.482V37.152C1368.36 37.558 1368.27 37.642 1367.85 37.936C1367.62 38.104 1367.62 38.104 1366.66 38.762C1366.44 38.916 1366.44 38.916 1366.2 39.084L1365.75 38.09V38.65C1364.33 39.112 1363.26 39.392 1362 39.644C1361.34 39.77 1361.33 39.77 1360.9 39.896L1360.69 38.356C1361.26 38.356 1361.76 38.286 1362.87 38.062V34.142H1362.14C1361.55 34.142 1361.12 34.17 1360.77 34.212V32.784C1361.13 32.826 1361.57 32.854 1362.16 32.854H1362.87V31.916ZM1368.85 32.952H1367.11C1366.57 32.952 1366.2 32.966 1365.87 33.008V34.212C1365.56 34.156 1365.28 34.142 1364.77 34.142H1364.21V37.782C1364.75 37.656 1365 37.572 1365.74 37.348V37.642C1366.86 37.096 1367.8 36.48 1368.85 35.612V32.952ZM1362.27 30.656H1362.55H1364.63C1364.89 30.656 1364.97 30.656 1365.15 30.642C1364.54 30.026 1364.14 29.508 1363.67 28.668C1363.25 29.466 1362.87 30.012 1362.27 30.656ZM1362.55 37.362L1361.43 37.712C1361.32 36.746 1361.16 36.046 1360.84 34.982L1361.93 34.646C1362.23 35.542 1362.37 36.186 1362.55 37.362Z" fill="black"/>
</svg>
